%TF.GenerationSoftware,KiCad,Pcbnew,(7.0.0)*%
%TF.CreationDate,2023-03-21T11:08:30+02:00*%
%TF.ProjectId,SCHEMATICS,53434845-4d41-4544-9943-532e6b696361,rev?*%
%TF.SameCoordinates,Original*%
%TF.FileFunction,Drillmap*%
%TF.FilePolarity,Positive*%
%FSLAX45Y45*%
G04 Gerber Fmt 4.5, Leading zero omitted, Abs format (unit mm)*
G04 Created by KiCad (PCBNEW (7.0.0)) date 2023-03-21 11:08:30*
%MOMM*%
%LPD*%
G01*
G04 APERTURE LIST*
%ADD10C,0.100000*%
%ADD11C,0.200000*%
G04 APERTURE END LIST*
D10*
X9000000Y-4800000D02*
X19000000Y-4800000D01*
X19000000Y-4800000D02*
X19000000Y-14800000D01*
X19000000Y-14800000D02*
X9000000Y-14800000D01*
X9000000Y-14800000D02*
X9000000Y-4800000D01*
D11*
X9242619Y-15098476D02*
X9242619Y-14898476D01*
X9242619Y-14898476D02*
X9290238Y-14898476D01*
X9290238Y-14898476D02*
X9318810Y-14908000D01*
X9318810Y-14908000D02*
X9337857Y-14927048D01*
X9337857Y-14927048D02*
X9347381Y-14946095D01*
X9347381Y-14946095D02*
X9356905Y-14984190D01*
X9356905Y-14984190D02*
X9356905Y-15012762D01*
X9356905Y-15012762D02*
X9347381Y-15050857D01*
X9347381Y-15050857D02*
X9337857Y-15069905D01*
X9337857Y-15069905D02*
X9318810Y-15088952D01*
X9318810Y-15088952D02*
X9290238Y-15098476D01*
X9290238Y-15098476D02*
X9242619Y-15098476D01*
X9442619Y-15098476D02*
X9442619Y-14965143D01*
X9442619Y-15003238D02*
X9452143Y-14984190D01*
X9452143Y-14984190D02*
X9461667Y-14974667D01*
X9461667Y-14974667D02*
X9480714Y-14965143D01*
X9480714Y-14965143D02*
X9499762Y-14965143D01*
X9566429Y-15098476D02*
X9566429Y-14965143D01*
X9566429Y-14898476D02*
X9556905Y-14908000D01*
X9556905Y-14908000D02*
X9566429Y-14917524D01*
X9566429Y-14917524D02*
X9575952Y-14908000D01*
X9575952Y-14908000D02*
X9566429Y-14898476D01*
X9566429Y-14898476D02*
X9566429Y-14917524D01*
X9690238Y-15098476D02*
X9671190Y-15088952D01*
X9671190Y-15088952D02*
X9661667Y-15069905D01*
X9661667Y-15069905D02*
X9661667Y-14898476D01*
X9795000Y-15098476D02*
X9775952Y-15088952D01*
X9775952Y-15088952D02*
X9766429Y-15069905D01*
X9766429Y-15069905D02*
X9766429Y-14898476D01*
X9991190Y-15098476D02*
X9991190Y-14898476D01*
X9991190Y-14898476D02*
X10057857Y-15041333D01*
X10057857Y-15041333D02*
X10124524Y-14898476D01*
X10124524Y-14898476D02*
X10124524Y-15098476D01*
X10305476Y-15098476D02*
X10305476Y-14993714D01*
X10305476Y-14993714D02*
X10295952Y-14974667D01*
X10295952Y-14974667D02*
X10276905Y-14965143D01*
X10276905Y-14965143D02*
X10238809Y-14965143D01*
X10238809Y-14965143D02*
X10219762Y-14974667D01*
X10305476Y-15088952D02*
X10286429Y-15098476D01*
X10286429Y-15098476D02*
X10238809Y-15098476D01*
X10238809Y-15098476D02*
X10219762Y-15088952D01*
X10219762Y-15088952D02*
X10210238Y-15069905D01*
X10210238Y-15069905D02*
X10210238Y-15050857D01*
X10210238Y-15050857D02*
X10219762Y-15031809D01*
X10219762Y-15031809D02*
X10238809Y-15022286D01*
X10238809Y-15022286D02*
X10286429Y-15022286D01*
X10286429Y-15022286D02*
X10305476Y-15012762D01*
X10400714Y-14965143D02*
X10400714Y-15165143D01*
X10400714Y-14974667D02*
X10419762Y-14965143D01*
X10419762Y-14965143D02*
X10457857Y-14965143D01*
X10457857Y-14965143D02*
X10476905Y-14974667D01*
X10476905Y-14974667D02*
X10486429Y-14984190D01*
X10486429Y-14984190D02*
X10495952Y-15003238D01*
X10495952Y-15003238D02*
X10495952Y-15060381D01*
X10495952Y-15060381D02*
X10486429Y-15079428D01*
X10486429Y-15079428D02*
X10476905Y-15088952D01*
X10476905Y-15088952D02*
X10457857Y-15098476D01*
X10457857Y-15098476D02*
X10419762Y-15098476D01*
X10419762Y-15098476D02*
X10400714Y-15088952D01*
X10581667Y-15079428D02*
X10591190Y-15088952D01*
X10591190Y-15088952D02*
X10581667Y-15098476D01*
X10581667Y-15098476D02*
X10572143Y-15088952D01*
X10572143Y-15088952D02*
X10581667Y-15079428D01*
X10581667Y-15079428D02*
X10581667Y-15098476D01*
X10581667Y-14974667D02*
X10591190Y-14984190D01*
X10591190Y-14984190D02*
X10581667Y-14993714D01*
X10581667Y-14993714D02*
X10572143Y-14984190D01*
X10572143Y-14984190D02*
X10581667Y-14974667D01*
X10581667Y-14974667D02*
X10581667Y-14993714D01*
M02*
