%TF.GenerationSoftware,KiCad,Pcbnew,(7.0.0)*%
%TF.CreationDate,2023-03-21T11:08:30+02:00*%
%TF.ProjectId,SCHEMATICS,53434845-4d41-4544-9943-532e6b696361,rev?*%
%TF.SameCoordinates,Original*%
%TF.FileFunction,Drillmap*%
%TF.FilePolarity,Positive*%
%FSLAX45Y45*%
G04 Gerber Fmt 4.5, Leading zero omitted, Abs format (unit mm)*
G04 Created by KiCad (PCBNEW (7.0.0)) date 2023-03-21 11:08:30*
%MOMM*%
%LPD*%
G01*
G04 APERTURE LIST*
%ADD10C,0.100000*%
%ADD11C,0.200000*%
%ADD12C,0.040000*%
%ADD13C,0.070002*%
%ADD14C,0.076200*%
%ADD15C,0.240000*%
%ADD16C,0.370000*%
G04 APERTURE END LIST*
D10*
X9000000Y-4800000D02*
X19000000Y-4800000D01*
X19000000Y-4800000D02*
X19000000Y-14800000D01*
X19000000Y-14800000D02*
X9000000Y-14800000D01*
X9000000Y-14800000D02*
X9000000Y-4800000D01*
D11*
D12*
X9080000Y-12680000D02*
X9120000Y-12720000D01*
X9120000Y-12680000D02*
X9080000Y-12720000D01*
X9280000Y-10180000D02*
X9320000Y-10220000D01*
X9320000Y-10180000D02*
X9280000Y-10220000D01*
X9330000Y-11755000D02*
X9370000Y-11795000D01*
X9370000Y-11755000D02*
X9330000Y-11795000D01*
X9380749Y-13099450D02*
X9420749Y-13139450D01*
X9420749Y-13099450D02*
X9380749Y-13139450D01*
X9405000Y-11480000D02*
X9445000Y-11520000D01*
X9445000Y-11480000D02*
X9405000Y-11520000D01*
X9480000Y-6380000D02*
X9520000Y-6420000D01*
X9520000Y-6380000D02*
X9480000Y-6420000D01*
X9580000Y-12280000D02*
X9620000Y-12320000D01*
X9620000Y-12280000D02*
X9580000Y-12320000D01*
X9855000Y-13130000D02*
X9895000Y-13170000D01*
X9895000Y-13130000D02*
X9855000Y-13170000D01*
X9880000Y-7880000D02*
X9920000Y-7920000D01*
X9920000Y-7880000D02*
X9880000Y-7920000D01*
X10055000Y-10855000D02*
X10095000Y-10895000D01*
X10095000Y-10855000D02*
X10055000Y-10895000D01*
X10505000Y-10355000D02*
X10545000Y-10395000D01*
X10545000Y-10355000D02*
X10505000Y-10395000D01*
X10680000Y-8980000D02*
X10720000Y-9020000D01*
X10720000Y-8980000D02*
X10680000Y-9020000D01*
X10680000Y-12780000D02*
X10720000Y-12820000D01*
X10720000Y-12780000D02*
X10680000Y-12820000D01*
X11480000Y-8380000D02*
X11520000Y-8420000D01*
X11520000Y-8380000D02*
X11480000Y-8420000D01*
X11530000Y-7830000D02*
X11570000Y-7870000D01*
X11570000Y-7830000D02*
X11530000Y-7870000D01*
X11680000Y-9980000D02*
X11720000Y-10020000D01*
X11720000Y-9980000D02*
X11680000Y-10020000D01*
X11880000Y-8380000D02*
X11920000Y-8420000D01*
X11920000Y-8380000D02*
X11880000Y-8420000D01*
X12080000Y-10980000D02*
X12120000Y-11020000D01*
X12120000Y-10980000D02*
X12080000Y-11020000D01*
X13080000Y-13180000D02*
X13120000Y-13220000D01*
X13120000Y-13180000D02*
X13080000Y-13220000D01*
X14280000Y-13880000D02*
X14320000Y-13920000D01*
X14320000Y-13880000D02*
X14280000Y-13920000D01*
X14377459Y-8677459D02*
X14417459Y-8717459D01*
X14417459Y-8677459D02*
X14377459Y-8717459D01*
X14980000Y-7280000D02*
X15020000Y-7320000D01*
X15020000Y-7280000D02*
X14980000Y-7320000D01*
X15436817Y-13415999D02*
X15476817Y-13455999D01*
X15476817Y-13415999D02*
X15436817Y-13455999D01*
X15680000Y-9080000D02*
X15720000Y-9120000D01*
X15720000Y-9080000D02*
X15680000Y-9120000D01*
X15680000Y-13680000D02*
X15720000Y-13720000D01*
X15720000Y-13680000D02*
X15680000Y-13720000D01*
X15830000Y-7280000D02*
X15870000Y-7320000D01*
X15870000Y-7280000D02*
X15830000Y-7320000D01*
X16480000Y-7780000D02*
X16520000Y-7820000D01*
X16520000Y-7780000D02*
X16480000Y-7820000D01*
X16680000Y-7180000D02*
X16720000Y-7220000D01*
X16720000Y-7180000D02*
X16680000Y-7220000D01*
X17180000Y-13280000D02*
X17220000Y-13320000D01*
X17220000Y-13280000D02*
X17180000Y-13320000D01*
X18180000Y-6580000D02*
X18220000Y-6620000D01*
X18220000Y-6580000D02*
X18180000Y-6620000D01*
X18280000Y-7280000D02*
X18320000Y-7320000D01*
X18320000Y-7280000D02*
X18280000Y-7320000D01*
X18302775Y-5838766D02*
X18342775Y-5878766D01*
X18342775Y-5838766D02*
X18302775Y-5878766D01*
D13*
X9517907Y-7757499D02*
G75*
G03*
X9517907Y-7757499I-35001J0D01*
G01*
D11*
X9522911Y-7722498D02*
X9442901Y-7722498D01*
X9442901Y-7722498D02*
G75*
G03*
X9442901Y-7792501I0J-35001D01*
G01*
X9442901Y-7792501D02*
X9522911Y-7792501D01*
X9522911Y-7792501D02*
G75*
G03*
X9522911Y-7722498I0J35001D01*
G01*
D13*
X9517907Y-8477489D02*
G75*
G03*
X9517907Y-8477489I-35001J0D01*
G01*
D11*
X9522911Y-8442488D02*
X9442901Y-8442488D01*
X9442901Y-8442488D02*
G75*
G03*
X9442901Y-8512490I0J-35001D01*
G01*
X9442901Y-8512490D02*
X9522911Y-8512490D01*
X9522911Y-8512490D02*
G75*
G03*
X9522911Y-8442488I0J35001D01*
G01*
D13*
X9784912Y-7875000D02*
G75*
G03*
X9784912Y-7875000I-35001J0D01*
G01*
X9784912Y-8359989D02*
G75*
G03*
X9784912Y-8359989I-35001J0D01*
G01*
D14*
X12570650Y-10581250D02*
X12570650Y-10657450D01*
X12532550Y-10619350D02*
X12608750Y-10619350D01*
X12570650Y-12232250D02*
X12570650Y-12308450D01*
X12532550Y-12270350D02*
X12608750Y-12270350D01*
X12824650Y-10581250D02*
X12824650Y-10657450D01*
X12786550Y-10619350D02*
X12862750Y-10619350D01*
X12824650Y-12232250D02*
X12824650Y-12308450D01*
X12786550Y-12270350D02*
X12862750Y-12270350D01*
X13078650Y-10581250D02*
X13078650Y-10657450D01*
X13040550Y-10619350D02*
X13116750Y-10619350D01*
X13078650Y-12232250D02*
X13078650Y-12308450D01*
X13040550Y-12270350D02*
X13116750Y-12270350D01*
X13332650Y-10581250D02*
X13332650Y-10657450D01*
X13294550Y-10619350D02*
X13370750Y-10619350D01*
X13332650Y-12232250D02*
X13332650Y-12308450D01*
X13294550Y-12270350D02*
X13370750Y-12270350D01*
X13586650Y-10581250D02*
X13586650Y-10657450D01*
X13548550Y-10619350D02*
X13624750Y-10619350D01*
X13586650Y-12232250D02*
X13586650Y-12308450D01*
X13548550Y-12270350D02*
X13624750Y-12270350D01*
X13840650Y-10581250D02*
X13840650Y-10657450D01*
X13802550Y-10619350D02*
X13878750Y-10619350D01*
X13840650Y-12232250D02*
X13840650Y-12308450D01*
X13802550Y-12270350D02*
X13878750Y-12270350D01*
X14094650Y-10581250D02*
X14094650Y-10657450D01*
X14056550Y-10619350D02*
X14132750Y-10619350D01*
X14094650Y-12232250D02*
X14094650Y-12308450D01*
X14056550Y-12270350D02*
X14132750Y-12270350D01*
X14348650Y-10581250D02*
X14348650Y-10657450D01*
X14310550Y-10619350D02*
X14386750Y-10619350D01*
X14348650Y-12232250D02*
X14348650Y-12308450D01*
X14310550Y-12270350D02*
X14386750Y-12270350D01*
X14602650Y-10581250D02*
X14602650Y-10657450D01*
X14564550Y-10619350D02*
X14640750Y-10619350D01*
X14602650Y-12232250D02*
X14602650Y-12308450D01*
X14564550Y-12270350D02*
X14640750Y-12270350D01*
X14856650Y-10581250D02*
X14856650Y-10657450D01*
X14818550Y-10619350D02*
X14894750Y-10619350D01*
X14856650Y-12232250D02*
X14856650Y-12308450D01*
X14818550Y-12270350D02*
X14894750Y-12270350D01*
X15110650Y-10581250D02*
X15110650Y-10657450D01*
X15072550Y-10619350D02*
X15148750Y-10619350D01*
X15110650Y-12232250D02*
X15110650Y-12308450D01*
X15072550Y-12270350D02*
X15148750Y-12270350D01*
X15364650Y-10581250D02*
X15364650Y-10657450D01*
X15326550Y-10619350D02*
X15402750Y-10619350D01*
X15364650Y-12232250D02*
X15364650Y-12308450D01*
X15326550Y-12270350D02*
X15402750Y-12270350D01*
X15618650Y-10581250D02*
X15618650Y-10657450D01*
X15580550Y-10619350D02*
X15656750Y-10619350D01*
X15618650Y-12232250D02*
X15618650Y-12308450D01*
X15580550Y-12270350D02*
X15656750Y-12270350D01*
X15872650Y-10581250D02*
X15872650Y-10657450D01*
X15834550Y-10619350D02*
X15910750Y-10619350D01*
X15872650Y-12232250D02*
X15872650Y-12308450D01*
X15834550Y-12270350D02*
X15910750Y-12270350D01*
X16126650Y-10581250D02*
X16126650Y-10657450D01*
X16088550Y-10619350D02*
X16164750Y-10619350D01*
X16126650Y-12232250D02*
X16126650Y-12308450D01*
X16088550Y-12270350D02*
X16164750Y-12270350D01*
X16380650Y-10581250D02*
X16380650Y-10657450D01*
X16342550Y-10619350D02*
X16418750Y-10619350D01*
X16380650Y-12232250D02*
X16380650Y-12308450D01*
X16342550Y-12270350D02*
X16418750Y-12270350D01*
X16634650Y-10581250D02*
X16634650Y-10657450D01*
X16596550Y-10619350D02*
X16672750Y-10619350D01*
X16634650Y-12232250D02*
X16634650Y-12308450D01*
X16596550Y-12270350D02*
X16672750Y-12270350D01*
X16888650Y-10581250D02*
X16888650Y-10657450D01*
X16850550Y-10619350D02*
X16926750Y-10619350D01*
X16888650Y-12232250D02*
X16888650Y-12308450D01*
X16850550Y-12270350D02*
X16926750Y-12270350D01*
X17142650Y-10581250D02*
X17142650Y-10657450D01*
X17104550Y-10619350D02*
X17180750Y-10619350D01*
X17142650Y-12232250D02*
X17142650Y-12308450D01*
X17104550Y-12270350D02*
X17180750Y-12270350D01*
X17396650Y-10581250D02*
X17396650Y-10657450D01*
X17358550Y-10619350D02*
X17434750Y-10619350D01*
X17396650Y-12232250D02*
X17396650Y-12308450D01*
X17358550Y-12270350D02*
X17434750Y-12270350D01*
X17650650Y-10581250D02*
X17650650Y-10657450D01*
X17612550Y-10619350D02*
X17688750Y-10619350D01*
X17650650Y-12232250D02*
X17650650Y-12308450D01*
X17612550Y-12270350D02*
X17688750Y-12270350D01*
X17904650Y-10581250D02*
X17904650Y-10657450D01*
X17866550Y-10619350D02*
X17942750Y-10619350D01*
X17904650Y-12232250D02*
X17904650Y-12308450D01*
X17866550Y-12270350D02*
X17942750Y-12270350D01*
X18158650Y-10581250D02*
X18158650Y-10657450D01*
X18120550Y-10619350D02*
X18196750Y-10619350D01*
X18158650Y-12232250D02*
X18158650Y-12308450D01*
X18120550Y-12270350D02*
X18196750Y-12270350D01*
X18412650Y-10581250D02*
X18412650Y-10657450D01*
X18374550Y-10619350D02*
X18450750Y-10619350D01*
X18412650Y-12232250D02*
X18412650Y-12308450D01*
X18374550Y-12270350D02*
X18450750Y-12270350D01*
D10*
X12566006Y-12705706D02*
X12566006Y-12634994D01*
X12495294Y-12634994D01*
X12495294Y-12705706D01*
X12566006Y-12705706D01*
X12652006Y-10305706D02*
X12652006Y-10234994D01*
X12581294Y-10234994D01*
X12581294Y-10305706D01*
X12652006Y-10305706D01*
X12820006Y-12705706D02*
X12820006Y-12634994D01*
X12749294Y-12634994D01*
X12749294Y-12705706D01*
X12820006Y-12705706D01*
X12906006Y-10305706D02*
X12906006Y-10234994D01*
X12835294Y-10234994D01*
X12835294Y-10305706D01*
X12906006Y-10305706D01*
X13074006Y-12705706D02*
X13074006Y-12634994D01*
X13003294Y-12634994D01*
X13003294Y-12705706D01*
X13074006Y-12705706D01*
X13160006Y-10305706D02*
X13160006Y-10234994D01*
X13089294Y-10234994D01*
X13089294Y-10305706D01*
X13160006Y-10305706D01*
X13328006Y-12705706D02*
X13328006Y-12634994D01*
X13257294Y-12634994D01*
X13257294Y-12705706D01*
X13328006Y-12705706D01*
X13414006Y-10305706D02*
X13414006Y-10234994D01*
X13343294Y-10234994D01*
X13343294Y-10305706D01*
X13414006Y-10305706D01*
X13582006Y-12705706D02*
X13582006Y-12634994D01*
X13511294Y-12634994D01*
X13511294Y-12705706D01*
X13582006Y-12705706D01*
X13668006Y-10305706D02*
X13668006Y-10234994D01*
X13597294Y-10234994D01*
X13597294Y-10305706D01*
X13668006Y-10305706D01*
X13836006Y-12705706D02*
X13836006Y-12634994D01*
X13765294Y-12634994D01*
X13765294Y-12705706D01*
X13836006Y-12705706D01*
X13922006Y-10305706D02*
X13922006Y-10234994D01*
X13851294Y-10234994D01*
X13851294Y-10305706D01*
X13922006Y-10305706D01*
X14090006Y-12705706D02*
X14090006Y-12634994D01*
X14019294Y-12634994D01*
X14019294Y-12705706D01*
X14090006Y-12705706D01*
X14176006Y-10305706D02*
X14176006Y-10234994D01*
X14105294Y-10234994D01*
X14105294Y-10305706D01*
X14176006Y-10305706D01*
X14344006Y-12705706D02*
X14344006Y-12634994D01*
X14273294Y-12634994D01*
X14273294Y-12705706D01*
X14344006Y-12705706D01*
X14430006Y-10305706D02*
X14430006Y-10234994D01*
X14359294Y-10234994D01*
X14359294Y-10305706D01*
X14430006Y-10305706D01*
X14598006Y-12705706D02*
X14598006Y-12634994D01*
X14527294Y-12634994D01*
X14527294Y-12705706D01*
X14598006Y-12705706D01*
X14684006Y-10305706D02*
X14684006Y-10234994D01*
X14613294Y-10234994D01*
X14613294Y-10305706D01*
X14684006Y-10305706D01*
X14852006Y-12705706D02*
X14852006Y-12634994D01*
X14781294Y-12634994D01*
X14781294Y-12705706D01*
X14852006Y-12705706D01*
X14938006Y-10305706D02*
X14938006Y-10234994D01*
X14867294Y-10234994D01*
X14867294Y-10305706D01*
X14938006Y-10305706D01*
X15106006Y-12705706D02*
X15106006Y-12634994D01*
X15035294Y-12634994D01*
X15035294Y-12705706D01*
X15106006Y-12705706D01*
X15192006Y-10305706D02*
X15192006Y-10234994D01*
X15121294Y-10234994D01*
X15121294Y-10305706D01*
X15192006Y-10305706D01*
X15360006Y-12705706D02*
X15360006Y-12634994D01*
X15289294Y-12634994D01*
X15289294Y-12705706D01*
X15360006Y-12705706D01*
X15446006Y-10305706D02*
X15446006Y-10234994D01*
X15375294Y-10234994D01*
X15375294Y-10305706D01*
X15446006Y-10305706D01*
X15614006Y-12705706D02*
X15614006Y-12634994D01*
X15543294Y-12634994D01*
X15543294Y-12705706D01*
X15614006Y-12705706D01*
X15700006Y-10305706D02*
X15700006Y-10234994D01*
X15629294Y-10234994D01*
X15629294Y-10305706D01*
X15700006Y-10305706D01*
X15868006Y-12705706D02*
X15868006Y-12634994D01*
X15797294Y-12634994D01*
X15797294Y-12705706D01*
X15868006Y-12705706D01*
X15954006Y-10305706D02*
X15954006Y-10234994D01*
X15883294Y-10234994D01*
X15883294Y-10305706D01*
X15954006Y-10305706D01*
X16122006Y-12705706D02*
X16122006Y-12634994D01*
X16051294Y-12634994D01*
X16051294Y-12705706D01*
X16122006Y-12705706D01*
X16208006Y-10305706D02*
X16208006Y-10234994D01*
X16137294Y-10234994D01*
X16137294Y-10305706D01*
X16208006Y-10305706D01*
X16376006Y-12705706D02*
X16376006Y-12634994D01*
X16305294Y-12634994D01*
X16305294Y-12705706D01*
X16376006Y-12705706D01*
X16462006Y-10305706D02*
X16462006Y-10234994D01*
X16391294Y-10234994D01*
X16391294Y-10305706D01*
X16462006Y-10305706D01*
X16630006Y-12705706D02*
X16630006Y-12634994D01*
X16559294Y-12634994D01*
X16559294Y-12705706D01*
X16630006Y-12705706D01*
X16716006Y-10305706D02*
X16716006Y-10234994D01*
X16645294Y-10234994D01*
X16645294Y-10305706D01*
X16716006Y-10305706D01*
X16884006Y-12705706D02*
X16884006Y-12634994D01*
X16813294Y-12634994D01*
X16813294Y-12705706D01*
X16884006Y-12705706D01*
X16970006Y-10305706D02*
X16970006Y-10234994D01*
X16899294Y-10234994D01*
X16899294Y-10305706D01*
X16970006Y-10305706D01*
X17138006Y-12705706D02*
X17138006Y-12634994D01*
X17067294Y-12634994D01*
X17067294Y-12705706D01*
X17138006Y-12705706D01*
X17224006Y-10305706D02*
X17224006Y-10234994D01*
X17153294Y-10234994D01*
X17153294Y-10305706D01*
X17224006Y-10305706D01*
X17392006Y-12705706D02*
X17392006Y-12634994D01*
X17321294Y-12634994D01*
X17321294Y-12705706D01*
X17392006Y-12705706D01*
X17478006Y-10305706D02*
X17478006Y-10234994D01*
X17407294Y-10234994D01*
X17407294Y-10305706D01*
X17478006Y-10305706D01*
X17646006Y-12705706D02*
X17646006Y-12634994D01*
X17575294Y-12634994D01*
X17575294Y-12705706D01*
X17646006Y-12705706D01*
X17732006Y-10305706D02*
X17732006Y-10234994D01*
X17661294Y-10234994D01*
X17661294Y-10305706D01*
X17732006Y-10305706D01*
X17900006Y-12705706D02*
X17900006Y-12634994D01*
X17829294Y-12634994D01*
X17829294Y-12705706D01*
X17900006Y-12705706D01*
X17986006Y-10305706D02*
X17986006Y-10234994D01*
X17915294Y-10234994D01*
X17915294Y-10305706D01*
X17986006Y-10305706D01*
X18154006Y-12705706D02*
X18154006Y-12634994D01*
X18083294Y-12634994D01*
X18083294Y-12705706D01*
X18154006Y-12705706D01*
X18240006Y-10305706D02*
X18240006Y-10234994D01*
X18169294Y-10234994D01*
X18169294Y-10305706D01*
X18240006Y-10305706D01*
X18408006Y-12705706D02*
X18408006Y-12634994D01*
X18337294Y-12634994D01*
X18337294Y-12705706D01*
X18408006Y-12705706D01*
X18494006Y-10305706D02*
X18494006Y-10234994D01*
X18423294Y-10234994D01*
X18423294Y-10305706D01*
X18494006Y-10305706D01*
D15*
X17196400Y-6861900D02*
X17316400Y-6741900D01*
X17196400Y-6621900D01*
X17076400Y-6741900D01*
X17196400Y-6861900D01*
D16*
X10669400Y-6556900D02*
X11039400Y-6926900D01*
X11039400Y-6556900D02*
X10669400Y-6926900D01*
X11039400Y-6741900D02*
G75*
G03*
X11039400Y-6741900I-185000J0D01*
G01*
X16189400Y-4956900D02*
X16559400Y-5326900D01*
X16559400Y-4956900D02*
X16189400Y-5326900D01*
X16559400Y-5141900D02*
G75*
G03*
X16559400Y-5141900I-185000J0D01*
G01*
D11*
X9242619Y-15098476D02*
X9242619Y-14898476D01*
X9242619Y-14898476D02*
X9290238Y-14898476D01*
X9290238Y-14898476D02*
X9318810Y-14908000D01*
X9318810Y-14908000D02*
X9337857Y-14927048D01*
X9337857Y-14927048D02*
X9347381Y-14946095D01*
X9347381Y-14946095D02*
X9356905Y-14984190D01*
X9356905Y-14984190D02*
X9356905Y-15012762D01*
X9356905Y-15012762D02*
X9347381Y-15050857D01*
X9347381Y-15050857D02*
X9337857Y-15069905D01*
X9337857Y-15069905D02*
X9318810Y-15088952D01*
X9318810Y-15088952D02*
X9290238Y-15098476D01*
X9290238Y-15098476D02*
X9242619Y-15098476D01*
X9442619Y-15098476D02*
X9442619Y-14965143D01*
X9442619Y-15003238D02*
X9452143Y-14984190D01*
X9452143Y-14984190D02*
X9461667Y-14974667D01*
X9461667Y-14974667D02*
X9480714Y-14965143D01*
X9480714Y-14965143D02*
X9499762Y-14965143D01*
X9566429Y-15098476D02*
X9566429Y-14965143D01*
X9566429Y-14898476D02*
X9556905Y-14908000D01*
X9556905Y-14908000D02*
X9566429Y-14917524D01*
X9566429Y-14917524D02*
X9575952Y-14908000D01*
X9575952Y-14908000D02*
X9566429Y-14898476D01*
X9566429Y-14898476D02*
X9566429Y-14917524D01*
X9690238Y-15098476D02*
X9671190Y-15088952D01*
X9671190Y-15088952D02*
X9661667Y-15069905D01*
X9661667Y-15069905D02*
X9661667Y-14898476D01*
X9795000Y-15098476D02*
X9775952Y-15088952D01*
X9775952Y-15088952D02*
X9766429Y-15069905D01*
X9766429Y-15069905D02*
X9766429Y-14898476D01*
X9991190Y-15098476D02*
X9991190Y-14898476D01*
X9991190Y-14898476D02*
X10057857Y-15041333D01*
X10057857Y-15041333D02*
X10124524Y-14898476D01*
X10124524Y-14898476D02*
X10124524Y-15098476D01*
X10305476Y-15098476D02*
X10305476Y-14993714D01*
X10305476Y-14993714D02*
X10295952Y-14974667D01*
X10295952Y-14974667D02*
X10276905Y-14965143D01*
X10276905Y-14965143D02*
X10238809Y-14965143D01*
X10238809Y-14965143D02*
X10219762Y-14974667D01*
X10305476Y-15088952D02*
X10286429Y-15098476D01*
X10286429Y-15098476D02*
X10238809Y-15098476D01*
X10238809Y-15098476D02*
X10219762Y-15088952D01*
X10219762Y-15088952D02*
X10210238Y-15069905D01*
X10210238Y-15069905D02*
X10210238Y-15050857D01*
X10210238Y-15050857D02*
X10219762Y-15031809D01*
X10219762Y-15031809D02*
X10238809Y-15022286D01*
X10238809Y-15022286D02*
X10286429Y-15022286D01*
X10286429Y-15022286D02*
X10305476Y-15012762D01*
X10400714Y-14965143D02*
X10400714Y-15165143D01*
X10400714Y-14974667D02*
X10419762Y-14965143D01*
X10419762Y-14965143D02*
X10457857Y-14965143D01*
X10457857Y-14965143D02*
X10476905Y-14974667D01*
X10476905Y-14974667D02*
X10486429Y-14984190D01*
X10486429Y-14984190D02*
X10495952Y-15003238D01*
X10495952Y-15003238D02*
X10495952Y-15060381D01*
X10495952Y-15060381D02*
X10486429Y-15079428D01*
X10486429Y-15079428D02*
X10476905Y-15088952D01*
X10476905Y-15088952D02*
X10457857Y-15098476D01*
X10457857Y-15098476D02*
X10419762Y-15098476D01*
X10419762Y-15098476D02*
X10400714Y-15088952D01*
X10581667Y-15079428D02*
X10591190Y-15088952D01*
X10591190Y-15088952D02*
X10581667Y-15098476D01*
X10581667Y-15098476D02*
X10572143Y-15088952D01*
X10572143Y-15088952D02*
X10581667Y-15079428D01*
X10581667Y-15079428D02*
X10581667Y-15098476D01*
X10581667Y-14974667D02*
X10591190Y-14984190D01*
X10591190Y-14984190D02*
X10581667Y-14993714D01*
X10581667Y-14993714D02*
X10572143Y-14984190D01*
X10572143Y-14984190D02*
X10581667Y-14974667D01*
X10581667Y-14974667D02*
X10581667Y-14993714D01*
D12*
X8955000Y-15425000D02*
X8995000Y-15465000D01*
X8995000Y-15425000D02*
X8955000Y-15465000D01*
D11*
X9280714Y-15318476D02*
X9299762Y-15318476D01*
X9299762Y-15318476D02*
X9318810Y-15328000D01*
X9318810Y-15328000D02*
X9328333Y-15337524D01*
X9328333Y-15337524D02*
X9337857Y-15356571D01*
X9337857Y-15356571D02*
X9347381Y-15394667D01*
X9347381Y-15394667D02*
X9347381Y-15442286D01*
X9347381Y-15442286D02*
X9337857Y-15480381D01*
X9337857Y-15480381D02*
X9328333Y-15499428D01*
X9328333Y-15499428D02*
X9318810Y-15508952D01*
X9318810Y-15508952D02*
X9299762Y-15518476D01*
X9299762Y-15518476D02*
X9280714Y-15518476D01*
X9280714Y-15518476D02*
X9261667Y-15508952D01*
X9261667Y-15508952D02*
X9252143Y-15499428D01*
X9252143Y-15499428D02*
X9242619Y-15480381D01*
X9242619Y-15480381D02*
X9233095Y-15442286D01*
X9233095Y-15442286D02*
X9233095Y-15394667D01*
X9233095Y-15394667D02*
X9242619Y-15356571D01*
X9242619Y-15356571D02*
X9252143Y-15337524D01*
X9252143Y-15337524D02*
X9261667Y-15328000D01*
X9261667Y-15328000D02*
X9280714Y-15318476D01*
X9433095Y-15499428D02*
X9442619Y-15508952D01*
X9442619Y-15508952D02*
X9433095Y-15518476D01*
X9433095Y-15518476D02*
X9423571Y-15508952D01*
X9423571Y-15508952D02*
X9433095Y-15499428D01*
X9433095Y-15499428D02*
X9433095Y-15518476D01*
X9614048Y-15385143D02*
X9614048Y-15518476D01*
X9566429Y-15308952D02*
X9518810Y-15451809D01*
X9518810Y-15451809D02*
X9642619Y-15451809D01*
X9756905Y-15318476D02*
X9775952Y-15318476D01*
X9775952Y-15318476D02*
X9795000Y-15328000D01*
X9795000Y-15328000D02*
X9804524Y-15337524D01*
X9804524Y-15337524D02*
X9814048Y-15356571D01*
X9814048Y-15356571D02*
X9823571Y-15394667D01*
X9823571Y-15394667D02*
X9823571Y-15442286D01*
X9823571Y-15442286D02*
X9814048Y-15480381D01*
X9814048Y-15480381D02*
X9804524Y-15499428D01*
X9804524Y-15499428D02*
X9795000Y-15508952D01*
X9795000Y-15508952D02*
X9775952Y-15518476D01*
X9775952Y-15518476D02*
X9756905Y-15518476D01*
X9756905Y-15518476D02*
X9737857Y-15508952D01*
X9737857Y-15508952D02*
X9728333Y-15499428D01*
X9728333Y-15499428D02*
X9718810Y-15480381D01*
X9718810Y-15480381D02*
X9709286Y-15442286D01*
X9709286Y-15442286D02*
X9709286Y-15394667D01*
X9709286Y-15394667D02*
X9718810Y-15356571D01*
X9718810Y-15356571D02*
X9728333Y-15337524D01*
X9728333Y-15337524D02*
X9737857Y-15328000D01*
X9737857Y-15328000D02*
X9756905Y-15318476D01*
X9947381Y-15318476D02*
X9966429Y-15318476D01*
X9966429Y-15318476D02*
X9985476Y-15328000D01*
X9985476Y-15328000D02*
X9995000Y-15337524D01*
X9995000Y-15337524D02*
X10004524Y-15356571D01*
X10004524Y-15356571D02*
X10014048Y-15394667D01*
X10014048Y-15394667D02*
X10014048Y-15442286D01*
X10014048Y-15442286D02*
X10004524Y-15480381D01*
X10004524Y-15480381D02*
X9995000Y-15499428D01*
X9995000Y-15499428D02*
X9985476Y-15508952D01*
X9985476Y-15508952D02*
X9966429Y-15518476D01*
X9966429Y-15518476D02*
X9947381Y-15518476D01*
X9947381Y-15518476D02*
X9928333Y-15508952D01*
X9928333Y-15508952D02*
X9918810Y-15499428D01*
X9918810Y-15499428D02*
X9909286Y-15480381D01*
X9909286Y-15480381D02*
X9899762Y-15442286D01*
X9899762Y-15442286D02*
X9899762Y-15394667D01*
X9899762Y-15394667D02*
X9909286Y-15356571D01*
X9909286Y-15356571D02*
X9918810Y-15337524D01*
X9918810Y-15337524D02*
X9928333Y-15328000D01*
X9928333Y-15328000D02*
X9947381Y-15318476D01*
X10099762Y-15518476D02*
X10099762Y-15385143D01*
X10099762Y-15404190D02*
X10109286Y-15394667D01*
X10109286Y-15394667D02*
X10128333Y-15385143D01*
X10128333Y-15385143D02*
X10156905Y-15385143D01*
X10156905Y-15385143D02*
X10175952Y-15394667D01*
X10175952Y-15394667D02*
X10185476Y-15413714D01*
X10185476Y-15413714D02*
X10185476Y-15518476D01*
X10185476Y-15413714D02*
X10195000Y-15394667D01*
X10195000Y-15394667D02*
X10214048Y-15385143D01*
X10214048Y-15385143D02*
X10242619Y-15385143D01*
X10242619Y-15385143D02*
X10261667Y-15394667D01*
X10261667Y-15394667D02*
X10271191Y-15413714D01*
X10271191Y-15413714D02*
X10271191Y-15518476D01*
X10366429Y-15518476D02*
X10366429Y-15385143D01*
X10366429Y-15404190D02*
X10375952Y-15394667D01*
X10375952Y-15394667D02*
X10395000Y-15385143D01*
X10395000Y-15385143D02*
X10423572Y-15385143D01*
X10423572Y-15385143D02*
X10442619Y-15394667D01*
X10442619Y-15394667D02*
X10452143Y-15413714D01*
X10452143Y-15413714D02*
X10452143Y-15518476D01*
X10452143Y-15413714D02*
X10461667Y-15394667D01*
X10461667Y-15394667D02*
X10480714Y-15385143D01*
X10480714Y-15385143D02*
X10509286Y-15385143D01*
X10509286Y-15385143D02*
X10528333Y-15394667D01*
X10528333Y-15394667D02*
X10537857Y-15413714D01*
X10537857Y-15413714D02*
X10537857Y-15518476D01*
X10895952Y-15308952D02*
X10724524Y-15566095D01*
X11120714Y-15318476D02*
X11139762Y-15318476D01*
X11139762Y-15318476D02*
X11158810Y-15328000D01*
X11158810Y-15328000D02*
X11168333Y-15337524D01*
X11168333Y-15337524D02*
X11177857Y-15356571D01*
X11177857Y-15356571D02*
X11187381Y-15394667D01*
X11187381Y-15394667D02*
X11187381Y-15442286D01*
X11187381Y-15442286D02*
X11177857Y-15480381D01*
X11177857Y-15480381D02*
X11168333Y-15499428D01*
X11168333Y-15499428D02*
X11158810Y-15508952D01*
X11158810Y-15508952D02*
X11139762Y-15518476D01*
X11139762Y-15518476D02*
X11120714Y-15518476D01*
X11120714Y-15518476D02*
X11101667Y-15508952D01*
X11101667Y-15508952D02*
X11092143Y-15499428D01*
X11092143Y-15499428D02*
X11082619Y-15480381D01*
X11082619Y-15480381D02*
X11073095Y-15442286D01*
X11073095Y-15442286D02*
X11073095Y-15394667D01*
X11073095Y-15394667D02*
X11082619Y-15356571D01*
X11082619Y-15356571D02*
X11092143Y-15337524D01*
X11092143Y-15337524D02*
X11101667Y-15328000D01*
X11101667Y-15328000D02*
X11120714Y-15318476D01*
X11273095Y-15499428D02*
X11282619Y-15508952D01*
X11282619Y-15508952D02*
X11273095Y-15518476D01*
X11273095Y-15518476D02*
X11263571Y-15508952D01*
X11263571Y-15508952D02*
X11273095Y-15499428D01*
X11273095Y-15499428D02*
X11273095Y-15518476D01*
X11406429Y-15318476D02*
X11425476Y-15318476D01*
X11425476Y-15318476D02*
X11444524Y-15328000D01*
X11444524Y-15328000D02*
X11454048Y-15337524D01*
X11454048Y-15337524D02*
X11463571Y-15356571D01*
X11463571Y-15356571D02*
X11473095Y-15394667D01*
X11473095Y-15394667D02*
X11473095Y-15442286D01*
X11473095Y-15442286D02*
X11463571Y-15480381D01*
X11463571Y-15480381D02*
X11454048Y-15499428D01*
X11454048Y-15499428D02*
X11444524Y-15508952D01*
X11444524Y-15508952D02*
X11425476Y-15518476D01*
X11425476Y-15518476D02*
X11406429Y-15518476D01*
X11406429Y-15518476D02*
X11387381Y-15508952D01*
X11387381Y-15508952D02*
X11377857Y-15499428D01*
X11377857Y-15499428D02*
X11368333Y-15480381D01*
X11368333Y-15480381D02*
X11358810Y-15442286D01*
X11358810Y-15442286D02*
X11358810Y-15394667D01*
X11358810Y-15394667D02*
X11368333Y-15356571D01*
X11368333Y-15356571D02*
X11377857Y-15337524D01*
X11377857Y-15337524D02*
X11387381Y-15328000D01*
X11387381Y-15328000D02*
X11406429Y-15318476D01*
X11663571Y-15518476D02*
X11549286Y-15518476D01*
X11606429Y-15518476D02*
X11606429Y-15318476D01*
X11606429Y-15318476D02*
X11587381Y-15347048D01*
X11587381Y-15347048D02*
X11568333Y-15366095D01*
X11568333Y-15366095D02*
X11549286Y-15375619D01*
X11844524Y-15318476D02*
X11749286Y-15318476D01*
X11749286Y-15318476D02*
X11739762Y-15413714D01*
X11739762Y-15413714D02*
X11749286Y-15404190D01*
X11749286Y-15404190D02*
X11768333Y-15394667D01*
X11768333Y-15394667D02*
X11815952Y-15394667D01*
X11815952Y-15394667D02*
X11835000Y-15404190D01*
X11835000Y-15404190D02*
X11844524Y-15413714D01*
X11844524Y-15413714D02*
X11854048Y-15432762D01*
X11854048Y-15432762D02*
X11854048Y-15480381D01*
X11854048Y-15480381D02*
X11844524Y-15499428D01*
X11844524Y-15499428D02*
X11835000Y-15508952D01*
X11835000Y-15508952D02*
X11815952Y-15518476D01*
X11815952Y-15518476D02*
X11768333Y-15518476D01*
X11768333Y-15518476D02*
X11749286Y-15508952D01*
X11749286Y-15508952D02*
X11739762Y-15499428D01*
X11920714Y-15318476D02*
X12054048Y-15318476D01*
X12054048Y-15318476D02*
X11968333Y-15518476D01*
X12120714Y-15318476D02*
X12120714Y-15356571D01*
X12196905Y-15318476D02*
X12196905Y-15356571D01*
X12459762Y-15594667D02*
X12450238Y-15585143D01*
X12450238Y-15585143D02*
X12431191Y-15556571D01*
X12431191Y-15556571D02*
X12421667Y-15537524D01*
X12421667Y-15537524D02*
X12412143Y-15508952D01*
X12412143Y-15508952D02*
X12402619Y-15461333D01*
X12402619Y-15461333D02*
X12402619Y-15423238D01*
X12402619Y-15423238D02*
X12412143Y-15375619D01*
X12412143Y-15375619D02*
X12421667Y-15347048D01*
X12421667Y-15347048D02*
X12431191Y-15328000D01*
X12431191Y-15328000D02*
X12450238Y-15299428D01*
X12450238Y-15299428D02*
X12459762Y-15289905D01*
X12516905Y-15318476D02*
X12640714Y-15318476D01*
X12640714Y-15318476D02*
X12574048Y-15394667D01*
X12574048Y-15394667D02*
X12602619Y-15394667D01*
X12602619Y-15394667D02*
X12621667Y-15404190D01*
X12621667Y-15404190D02*
X12631191Y-15413714D01*
X12631191Y-15413714D02*
X12640714Y-15432762D01*
X12640714Y-15432762D02*
X12640714Y-15480381D01*
X12640714Y-15480381D02*
X12631191Y-15499428D01*
X12631191Y-15499428D02*
X12621667Y-15508952D01*
X12621667Y-15508952D02*
X12602619Y-15518476D01*
X12602619Y-15518476D02*
X12545476Y-15518476D01*
X12545476Y-15518476D02*
X12526429Y-15508952D01*
X12526429Y-15508952D02*
X12516905Y-15499428D01*
X12716905Y-15337524D02*
X12726429Y-15328000D01*
X12726429Y-15328000D02*
X12745476Y-15318476D01*
X12745476Y-15318476D02*
X12793095Y-15318476D01*
X12793095Y-15318476D02*
X12812143Y-15328000D01*
X12812143Y-15328000D02*
X12821667Y-15337524D01*
X12821667Y-15337524D02*
X12831191Y-15356571D01*
X12831191Y-15356571D02*
X12831191Y-15375619D01*
X12831191Y-15375619D02*
X12821667Y-15404190D01*
X12821667Y-15404190D02*
X12707381Y-15518476D01*
X12707381Y-15518476D02*
X12831191Y-15518476D01*
X13036905Y-15518476D02*
X13036905Y-15318476D01*
X13122619Y-15518476D02*
X13122619Y-15413714D01*
X13122619Y-15413714D02*
X13113095Y-15394667D01*
X13113095Y-15394667D02*
X13094048Y-15385143D01*
X13094048Y-15385143D02*
X13065476Y-15385143D01*
X13065476Y-15385143D02*
X13046429Y-15394667D01*
X13046429Y-15394667D02*
X13036905Y-15404190D01*
X13246429Y-15518476D02*
X13227381Y-15508952D01*
X13227381Y-15508952D02*
X13217857Y-15499428D01*
X13217857Y-15499428D02*
X13208333Y-15480381D01*
X13208333Y-15480381D02*
X13208333Y-15423238D01*
X13208333Y-15423238D02*
X13217857Y-15404190D01*
X13217857Y-15404190D02*
X13227381Y-15394667D01*
X13227381Y-15394667D02*
X13246429Y-15385143D01*
X13246429Y-15385143D02*
X13275000Y-15385143D01*
X13275000Y-15385143D02*
X13294048Y-15394667D01*
X13294048Y-15394667D02*
X13303572Y-15404190D01*
X13303572Y-15404190D02*
X13313095Y-15423238D01*
X13313095Y-15423238D02*
X13313095Y-15480381D01*
X13313095Y-15480381D02*
X13303572Y-15499428D01*
X13303572Y-15499428D02*
X13294048Y-15508952D01*
X13294048Y-15508952D02*
X13275000Y-15518476D01*
X13275000Y-15518476D02*
X13246429Y-15518476D01*
X13427381Y-15518476D02*
X13408333Y-15508952D01*
X13408333Y-15508952D02*
X13398810Y-15489905D01*
X13398810Y-15489905D02*
X13398810Y-15318476D01*
X13579762Y-15508952D02*
X13560714Y-15518476D01*
X13560714Y-15518476D02*
X13522619Y-15518476D01*
X13522619Y-15518476D02*
X13503572Y-15508952D01*
X13503572Y-15508952D02*
X13494048Y-15489905D01*
X13494048Y-15489905D02*
X13494048Y-15413714D01*
X13494048Y-15413714D02*
X13503572Y-15394667D01*
X13503572Y-15394667D02*
X13522619Y-15385143D01*
X13522619Y-15385143D02*
X13560714Y-15385143D01*
X13560714Y-15385143D02*
X13579762Y-15394667D01*
X13579762Y-15394667D02*
X13589286Y-15413714D01*
X13589286Y-15413714D02*
X13589286Y-15432762D01*
X13589286Y-15432762D02*
X13494048Y-15451809D01*
X13665476Y-15508952D02*
X13684524Y-15518476D01*
X13684524Y-15518476D02*
X13722619Y-15518476D01*
X13722619Y-15518476D02*
X13741667Y-15508952D01*
X13741667Y-15508952D02*
X13751191Y-15489905D01*
X13751191Y-15489905D02*
X13751191Y-15480381D01*
X13751191Y-15480381D02*
X13741667Y-15461333D01*
X13741667Y-15461333D02*
X13722619Y-15451809D01*
X13722619Y-15451809D02*
X13694048Y-15451809D01*
X13694048Y-15451809D02*
X13675000Y-15442286D01*
X13675000Y-15442286D02*
X13665476Y-15423238D01*
X13665476Y-15423238D02*
X13665476Y-15413714D01*
X13665476Y-15413714D02*
X13675000Y-15394667D01*
X13675000Y-15394667D02*
X13694048Y-15385143D01*
X13694048Y-15385143D02*
X13722619Y-15385143D01*
X13722619Y-15385143D02*
X13741667Y-15394667D01*
X13817857Y-15594667D02*
X13827381Y-15585143D01*
X13827381Y-15585143D02*
X13846429Y-15556571D01*
X13846429Y-15556571D02*
X13855953Y-15537524D01*
X13855953Y-15537524D02*
X13865476Y-15508952D01*
X13865476Y-15508952D02*
X13875000Y-15461333D01*
X13875000Y-15461333D02*
X13875000Y-15423238D01*
X13875000Y-15423238D02*
X13865476Y-15375619D01*
X13865476Y-15375619D02*
X13855953Y-15347048D01*
X13855953Y-15347048D02*
X13846429Y-15328000D01*
X13846429Y-15328000D02*
X13827381Y-15299428D01*
X13827381Y-15299428D02*
X13817857Y-15289905D01*
D13*
X8995000Y-15709000D02*
G75*
G03*
X8995000Y-15709000I-35001J0D01*
G01*
D11*
X9280714Y-15582476D02*
X9299762Y-15582476D01*
X9299762Y-15582476D02*
X9318810Y-15592000D01*
X9318810Y-15592000D02*
X9328333Y-15601524D01*
X9328333Y-15601524D02*
X9337857Y-15620571D01*
X9337857Y-15620571D02*
X9347381Y-15658667D01*
X9347381Y-15658667D02*
X9347381Y-15706286D01*
X9347381Y-15706286D02*
X9337857Y-15744381D01*
X9337857Y-15744381D02*
X9328333Y-15763428D01*
X9328333Y-15763428D02*
X9318810Y-15772952D01*
X9318810Y-15772952D02*
X9299762Y-15782476D01*
X9299762Y-15782476D02*
X9280714Y-15782476D01*
X9280714Y-15782476D02*
X9261667Y-15772952D01*
X9261667Y-15772952D02*
X9252143Y-15763428D01*
X9252143Y-15763428D02*
X9242619Y-15744381D01*
X9242619Y-15744381D02*
X9233095Y-15706286D01*
X9233095Y-15706286D02*
X9233095Y-15658667D01*
X9233095Y-15658667D02*
X9242619Y-15620571D01*
X9242619Y-15620571D02*
X9252143Y-15601524D01*
X9252143Y-15601524D02*
X9261667Y-15592000D01*
X9261667Y-15592000D02*
X9280714Y-15582476D01*
X9433095Y-15763428D02*
X9442619Y-15772952D01*
X9442619Y-15772952D02*
X9433095Y-15782476D01*
X9433095Y-15782476D02*
X9423571Y-15772952D01*
X9423571Y-15772952D02*
X9433095Y-15763428D01*
X9433095Y-15763428D02*
X9433095Y-15782476D01*
X9509286Y-15582476D02*
X9642619Y-15582476D01*
X9642619Y-15582476D02*
X9556905Y-15782476D01*
X9756905Y-15582476D02*
X9775952Y-15582476D01*
X9775952Y-15582476D02*
X9795000Y-15592000D01*
X9795000Y-15592000D02*
X9804524Y-15601524D01*
X9804524Y-15601524D02*
X9814048Y-15620571D01*
X9814048Y-15620571D02*
X9823571Y-15658667D01*
X9823571Y-15658667D02*
X9823571Y-15706286D01*
X9823571Y-15706286D02*
X9814048Y-15744381D01*
X9814048Y-15744381D02*
X9804524Y-15763428D01*
X9804524Y-15763428D02*
X9795000Y-15772952D01*
X9795000Y-15772952D02*
X9775952Y-15782476D01*
X9775952Y-15782476D02*
X9756905Y-15782476D01*
X9756905Y-15782476D02*
X9737857Y-15772952D01*
X9737857Y-15772952D02*
X9728333Y-15763428D01*
X9728333Y-15763428D02*
X9718810Y-15744381D01*
X9718810Y-15744381D02*
X9709286Y-15706286D01*
X9709286Y-15706286D02*
X9709286Y-15658667D01*
X9709286Y-15658667D02*
X9718810Y-15620571D01*
X9718810Y-15620571D02*
X9728333Y-15601524D01*
X9728333Y-15601524D02*
X9737857Y-15592000D01*
X9737857Y-15592000D02*
X9756905Y-15582476D01*
X9947381Y-15582476D02*
X9966429Y-15582476D01*
X9966429Y-15582476D02*
X9985476Y-15592000D01*
X9985476Y-15592000D02*
X9995000Y-15601524D01*
X9995000Y-15601524D02*
X10004524Y-15620571D01*
X10004524Y-15620571D02*
X10014048Y-15658667D01*
X10014048Y-15658667D02*
X10014048Y-15706286D01*
X10014048Y-15706286D02*
X10004524Y-15744381D01*
X10004524Y-15744381D02*
X9995000Y-15763428D01*
X9995000Y-15763428D02*
X9985476Y-15772952D01*
X9985476Y-15772952D02*
X9966429Y-15782476D01*
X9966429Y-15782476D02*
X9947381Y-15782476D01*
X9947381Y-15782476D02*
X9928333Y-15772952D01*
X9928333Y-15772952D02*
X9918810Y-15763428D01*
X9918810Y-15763428D02*
X9909286Y-15744381D01*
X9909286Y-15744381D02*
X9899762Y-15706286D01*
X9899762Y-15706286D02*
X9899762Y-15658667D01*
X9899762Y-15658667D02*
X9909286Y-15620571D01*
X9909286Y-15620571D02*
X9918810Y-15601524D01*
X9918810Y-15601524D02*
X9928333Y-15592000D01*
X9928333Y-15592000D02*
X9947381Y-15582476D01*
X10099762Y-15782476D02*
X10099762Y-15649143D01*
X10099762Y-15668190D02*
X10109286Y-15658667D01*
X10109286Y-15658667D02*
X10128333Y-15649143D01*
X10128333Y-15649143D02*
X10156905Y-15649143D01*
X10156905Y-15649143D02*
X10175952Y-15658667D01*
X10175952Y-15658667D02*
X10185476Y-15677714D01*
X10185476Y-15677714D02*
X10185476Y-15782476D01*
X10185476Y-15677714D02*
X10195000Y-15658667D01*
X10195000Y-15658667D02*
X10214048Y-15649143D01*
X10214048Y-15649143D02*
X10242619Y-15649143D01*
X10242619Y-15649143D02*
X10261667Y-15658667D01*
X10261667Y-15658667D02*
X10271191Y-15677714D01*
X10271191Y-15677714D02*
X10271191Y-15782476D01*
X10366429Y-15782476D02*
X10366429Y-15649143D01*
X10366429Y-15668190D02*
X10375952Y-15658667D01*
X10375952Y-15658667D02*
X10395000Y-15649143D01*
X10395000Y-15649143D02*
X10423572Y-15649143D01*
X10423572Y-15649143D02*
X10442619Y-15658667D01*
X10442619Y-15658667D02*
X10452143Y-15677714D01*
X10452143Y-15677714D02*
X10452143Y-15782476D01*
X10452143Y-15677714D02*
X10461667Y-15658667D01*
X10461667Y-15658667D02*
X10480714Y-15649143D01*
X10480714Y-15649143D02*
X10509286Y-15649143D01*
X10509286Y-15649143D02*
X10528333Y-15658667D01*
X10528333Y-15658667D02*
X10537857Y-15677714D01*
X10537857Y-15677714D02*
X10537857Y-15782476D01*
X10895952Y-15572952D02*
X10724524Y-15830095D01*
X11120714Y-15582476D02*
X11139762Y-15582476D01*
X11139762Y-15582476D02*
X11158810Y-15592000D01*
X11158810Y-15592000D02*
X11168333Y-15601524D01*
X11168333Y-15601524D02*
X11177857Y-15620571D01*
X11177857Y-15620571D02*
X11187381Y-15658667D01*
X11187381Y-15658667D02*
X11187381Y-15706286D01*
X11187381Y-15706286D02*
X11177857Y-15744381D01*
X11177857Y-15744381D02*
X11168333Y-15763428D01*
X11168333Y-15763428D02*
X11158810Y-15772952D01*
X11158810Y-15772952D02*
X11139762Y-15782476D01*
X11139762Y-15782476D02*
X11120714Y-15782476D01*
X11120714Y-15782476D02*
X11101667Y-15772952D01*
X11101667Y-15772952D02*
X11092143Y-15763428D01*
X11092143Y-15763428D02*
X11082619Y-15744381D01*
X11082619Y-15744381D02*
X11073095Y-15706286D01*
X11073095Y-15706286D02*
X11073095Y-15658667D01*
X11073095Y-15658667D02*
X11082619Y-15620571D01*
X11082619Y-15620571D02*
X11092143Y-15601524D01*
X11092143Y-15601524D02*
X11101667Y-15592000D01*
X11101667Y-15592000D02*
X11120714Y-15582476D01*
X11273095Y-15763428D02*
X11282619Y-15772952D01*
X11282619Y-15772952D02*
X11273095Y-15782476D01*
X11273095Y-15782476D02*
X11263571Y-15772952D01*
X11263571Y-15772952D02*
X11273095Y-15763428D01*
X11273095Y-15763428D02*
X11273095Y-15782476D01*
X11406429Y-15582476D02*
X11425476Y-15582476D01*
X11425476Y-15582476D02*
X11444524Y-15592000D01*
X11444524Y-15592000D02*
X11454048Y-15601524D01*
X11454048Y-15601524D02*
X11463571Y-15620571D01*
X11463571Y-15620571D02*
X11473095Y-15658667D01*
X11473095Y-15658667D02*
X11473095Y-15706286D01*
X11473095Y-15706286D02*
X11463571Y-15744381D01*
X11463571Y-15744381D02*
X11454048Y-15763428D01*
X11454048Y-15763428D02*
X11444524Y-15772952D01*
X11444524Y-15772952D02*
X11425476Y-15782476D01*
X11425476Y-15782476D02*
X11406429Y-15782476D01*
X11406429Y-15782476D02*
X11387381Y-15772952D01*
X11387381Y-15772952D02*
X11377857Y-15763428D01*
X11377857Y-15763428D02*
X11368333Y-15744381D01*
X11368333Y-15744381D02*
X11358810Y-15706286D01*
X11358810Y-15706286D02*
X11358810Y-15658667D01*
X11358810Y-15658667D02*
X11368333Y-15620571D01*
X11368333Y-15620571D02*
X11377857Y-15601524D01*
X11377857Y-15601524D02*
X11387381Y-15592000D01*
X11387381Y-15592000D02*
X11406429Y-15582476D01*
X11549286Y-15601524D02*
X11558810Y-15592000D01*
X11558810Y-15592000D02*
X11577857Y-15582476D01*
X11577857Y-15582476D02*
X11625476Y-15582476D01*
X11625476Y-15582476D02*
X11644524Y-15592000D01*
X11644524Y-15592000D02*
X11654048Y-15601524D01*
X11654048Y-15601524D02*
X11663571Y-15620571D01*
X11663571Y-15620571D02*
X11663571Y-15639619D01*
X11663571Y-15639619D02*
X11654048Y-15668190D01*
X11654048Y-15668190D02*
X11539762Y-15782476D01*
X11539762Y-15782476D02*
X11663571Y-15782476D01*
X11730238Y-15582476D02*
X11863571Y-15582476D01*
X11863571Y-15582476D02*
X11777857Y-15782476D01*
X12025476Y-15582476D02*
X11987381Y-15582476D01*
X11987381Y-15582476D02*
X11968333Y-15592000D01*
X11968333Y-15592000D02*
X11958810Y-15601524D01*
X11958810Y-15601524D02*
X11939762Y-15630095D01*
X11939762Y-15630095D02*
X11930238Y-15668190D01*
X11930238Y-15668190D02*
X11930238Y-15744381D01*
X11930238Y-15744381D02*
X11939762Y-15763428D01*
X11939762Y-15763428D02*
X11949286Y-15772952D01*
X11949286Y-15772952D02*
X11968333Y-15782476D01*
X11968333Y-15782476D02*
X12006429Y-15782476D01*
X12006429Y-15782476D02*
X12025476Y-15772952D01*
X12025476Y-15772952D02*
X12035000Y-15763428D01*
X12035000Y-15763428D02*
X12044524Y-15744381D01*
X12044524Y-15744381D02*
X12044524Y-15696762D01*
X12044524Y-15696762D02*
X12035000Y-15677714D01*
X12035000Y-15677714D02*
X12025476Y-15668190D01*
X12025476Y-15668190D02*
X12006429Y-15658667D01*
X12006429Y-15658667D02*
X11968333Y-15658667D01*
X11968333Y-15658667D02*
X11949286Y-15668190D01*
X11949286Y-15668190D02*
X11939762Y-15677714D01*
X11939762Y-15677714D02*
X11930238Y-15696762D01*
X12120714Y-15582476D02*
X12120714Y-15620571D01*
X12196905Y-15582476D02*
X12196905Y-15620571D01*
X12459762Y-15858667D02*
X12450238Y-15849143D01*
X12450238Y-15849143D02*
X12431191Y-15820571D01*
X12431191Y-15820571D02*
X12421667Y-15801524D01*
X12421667Y-15801524D02*
X12412143Y-15772952D01*
X12412143Y-15772952D02*
X12402619Y-15725333D01*
X12402619Y-15725333D02*
X12402619Y-15687238D01*
X12402619Y-15687238D02*
X12412143Y-15639619D01*
X12412143Y-15639619D02*
X12421667Y-15611048D01*
X12421667Y-15611048D02*
X12431191Y-15592000D01*
X12431191Y-15592000D02*
X12450238Y-15563428D01*
X12450238Y-15563428D02*
X12459762Y-15553905D01*
X12526429Y-15601524D02*
X12535952Y-15592000D01*
X12535952Y-15592000D02*
X12555000Y-15582476D01*
X12555000Y-15582476D02*
X12602619Y-15582476D01*
X12602619Y-15582476D02*
X12621667Y-15592000D01*
X12621667Y-15592000D02*
X12631191Y-15601524D01*
X12631191Y-15601524D02*
X12640714Y-15620571D01*
X12640714Y-15620571D02*
X12640714Y-15639619D01*
X12640714Y-15639619D02*
X12631191Y-15668190D01*
X12631191Y-15668190D02*
X12516905Y-15782476D01*
X12516905Y-15782476D02*
X12640714Y-15782476D01*
X12846429Y-15782476D02*
X12846429Y-15582476D01*
X12932143Y-15782476D02*
X12932143Y-15677714D01*
X12932143Y-15677714D02*
X12922619Y-15658667D01*
X12922619Y-15658667D02*
X12903572Y-15649143D01*
X12903572Y-15649143D02*
X12875000Y-15649143D01*
X12875000Y-15649143D02*
X12855952Y-15658667D01*
X12855952Y-15658667D02*
X12846429Y-15668190D01*
X13055952Y-15782476D02*
X13036905Y-15772952D01*
X13036905Y-15772952D02*
X13027381Y-15763428D01*
X13027381Y-15763428D02*
X13017857Y-15744381D01*
X13017857Y-15744381D02*
X13017857Y-15687238D01*
X13017857Y-15687238D02*
X13027381Y-15668190D01*
X13027381Y-15668190D02*
X13036905Y-15658667D01*
X13036905Y-15658667D02*
X13055952Y-15649143D01*
X13055952Y-15649143D02*
X13084524Y-15649143D01*
X13084524Y-15649143D02*
X13103572Y-15658667D01*
X13103572Y-15658667D02*
X13113095Y-15668190D01*
X13113095Y-15668190D02*
X13122619Y-15687238D01*
X13122619Y-15687238D02*
X13122619Y-15744381D01*
X13122619Y-15744381D02*
X13113095Y-15763428D01*
X13113095Y-15763428D02*
X13103572Y-15772952D01*
X13103572Y-15772952D02*
X13084524Y-15782476D01*
X13084524Y-15782476D02*
X13055952Y-15782476D01*
X13236905Y-15782476D02*
X13217857Y-15772952D01*
X13217857Y-15772952D02*
X13208333Y-15753905D01*
X13208333Y-15753905D02*
X13208333Y-15582476D01*
X13389286Y-15772952D02*
X13370238Y-15782476D01*
X13370238Y-15782476D02*
X13332143Y-15782476D01*
X13332143Y-15782476D02*
X13313095Y-15772952D01*
X13313095Y-15772952D02*
X13303572Y-15753905D01*
X13303572Y-15753905D02*
X13303572Y-15677714D01*
X13303572Y-15677714D02*
X13313095Y-15658667D01*
X13313095Y-15658667D02*
X13332143Y-15649143D01*
X13332143Y-15649143D02*
X13370238Y-15649143D01*
X13370238Y-15649143D02*
X13389286Y-15658667D01*
X13389286Y-15658667D02*
X13398810Y-15677714D01*
X13398810Y-15677714D02*
X13398810Y-15696762D01*
X13398810Y-15696762D02*
X13303572Y-15715809D01*
X13475000Y-15772952D02*
X13494048Y-15782476D01*
X13494048Y-15782476D02*
X13532143Y-15782476D01*
X13532143Y-15782476D02*
X13551191Y-15772952D01*
X13551191Y-15772952D02*
X13560714Y-15753905D01*
X13560714Y-15753905D02*
X13560714Y-15744381D01*
X13560714Y-15744381D02*
X13551191Y-15725333D01*
X13551191Y-15725333D02*
X13532143Y-15715809D01*
X13532143Y-15715809D02*
X13503572Y-15715809D01*
X13503572Y-15715809D02*
X13484524Y-15706286D01*
X13484524Y-15706286D02*
X13475000Y-15687238D01*
X13475000Y-15687238D02*
X13475000Y-15677714D01*
X13475000Y-15677714D02*
X13484524Y-15658667D01*
X13484524Y-15658667D02*
X13503572Y-15649143D01*
X13503572Y-15649143D02*
X13532143Y-15649143D01*
X13532143Y-15649143D02*
X13551191Y-15658667D01*
X13766429Y-15706286D02*
X13918810Y-15706286D01*
X13842619Y-15782476D02*
X13842619Y-15630095D01*
X14124524Y-15601524D02*
X14134048Y-15592000D01*
X14134048Y-15592000D02*
X14153095Y-15582476D01*
X14153095Y-15582476D02*
X14200714Y-15582476D01*
X14200714Y-15582476D02*
X14219762Y-15592000D01*
X14219762Y-15592000D02*
X14229286Y-15601524D01*
X14229286Y-15601524D02*
X14238810Y-15620571D01*
X14238810Y-15620571D02*
X14238810Y-15639619D01*
X14238810Y-15639619D02*
X14229286Y-15668190D01*
X14229286Y-15668190D02*
X14115000Y-15782476D01*
X14115000Y-15782476D02*
X14238810Y-15782476D01*
X14435000Y-15772952D02*
X14454048Y-15782476D01*
X14454048Y-15782476D02*
X14492143Y-15782476D01*
X14492143Y-15782476D02*
X14511191Y-15772952D01*
X14511191Y-15772952D02*
X14520714Y-15753905D01*
X14520714Y-15753905D02*
X14520714Y-15744381D01*
X14520714Y-15744381D02*
X14511191Y-15725333D01*
X14511191Y-15725333D02*
X14492143Y-15715809D01*
X14492143Y-15715809D02*
X14463572Y-15715809D01*
X14463572Y-15715809D02*
X14444524Y-15706286D01*
X14444524Y-15706286D02*
X14435000Y-15687238D01*
X14435000Y-15687238D02*
X14435000Y-15677714D01*
X14435000Y-15677714D02*
X14444524Y-15658667D01*
X14444524Y-15658667D02*
X14463572Y-15649143D01*
X14463572Y-15649143D02*
X14492143Y-15649143D01*
X14492143Y-15649143D02*
X14511191Y-15658667D01*
X14635000Y-15782476D02*
X14615953Y-15772952D01*
X14615953Y-15772952D02*
X14606429Y-15753905D01*
X14606429Y-15753905D02*
X14606429Y-15582476D01*
X14739762Y-15782476D02*
X14720714Y-15772952D01*
X14720714Y-15772952D02*
X14711191Y-15763428D01*
X14711191Y-15763428D02*
X14701667Y-15744381D01*
X14701667Y-15744381D02*
X14701667Y-15687238D01*
X14701667Y-15687238D02*
X14711191Y-15668190D01*
X14711191Y-15668190D02*
X14720714Y-15658667D01*
X14720714Y-15658667D02*
X14739762Y-15649143D01*
X14739762Y-15649143D02*
X14768334Y-15649143D01*
X14768334Y-15649143D02*
X14787381Y-15658667D01*
X14787381Y-15658667D02*
X14796905Y-15668190D01*
X14796905Y-15668190D02*
X14806429Y-15687238D01*
X14806429Y-15687238D02*
X14806429Y-15744381D01*
X14806429Y-15744381D02*
X14796905Y-15763428D01*
X14796905Y-15763428D02*
X14787381Y-15772952D01*
X14787381Y-15772952D02*
X14768334Y-15782476D01*
X14768334Y-15782476D02*
X14739762Y-15782476D01*
X14863572Y-15649143D02*
X14939762Y-15649143D01*
X14892143Y-15582476D02*
X14892143Y-15753905D01*
X14892143Y-15753905D02*
X14901667Y-15772952D01*
X14901667Y-15772952D02*
X14920714Y-15782476D01*
X14920714Y-15782476D02*
X14939762Y-15782476D01*
X14996905Y-15772952D02*
X15015953Y-15782476D01*
X15015953Y-15782476D02*
X15054048Y-15782476D01*
X15054048Y-15782476D02*
X15073095Y-15772952D01*
X15073095Y-15772952D02*
X15082619Y-15753905D01*
X15082619Y-15753905D02*
X15082619Y-15744381D01*
X15082619Y-15744381D02*
X15073095Y-15725333D01*
X15073095Y-15725333D02*
X15054048Y-15715809D01*
X15054048Y-15715809D02*
X15025476Y-15715809D01*
X15025476Y-15715809D02*
X15006429Y-15706286D01*
X15006429Y-15706286D02*
X14996905Y-15687238D01*
X14996905Y-15687238D02*
X14996905Y-15677714D01*
X14996905Y-15677714D02*
X15006429Y-15658667D01*
X15006429Y-15658667D02*
X15025476Y-15649143D01*
X15025476Y-15649143D02*
X15054048Y-15649143D01*
X15054048Y-15649143D02*
X15073095Y-15658667D01*
X15149286Y-15858667D02*
X15158810Y-15849143D01*
X15158810Y-15849143D02*
X15177857Y-15820571D01*
X15177857Y-15820571D02*
X15187381Y-15801524D01*
X15187381Y-15801524D02*
X15196905Y-15772952D01*
X15196905Y-15772952D02*
X15206429Y-15725333D01*
X15206429Y-15725333D02*
X15206429Y-15687238D01*
X15206429Y-15687238D02*
X15196905Y-15639619D01*
X15196905Y-15639619D02*
X15187381Y-15611048D01*
X15187381Y-15611048D02*
X15177857Y-15592000D01*
X15177857Y-15592000D02*
X15158810Y-15563428D01*
X15158810Y-15563428D02*
X15149286Y-15553905D01*
D14*
X8956900Y-15934900D02*
X8956900Y-16011100D01*
X8918800Y-15973000D02*
X8995000Y-15973000D01*
D11*
X9280714Y-15846476D02*
X9299762Y-15846476D01*
X9299762Y-15846476D02*
X9318810Y-15856000D01*
X9318810Y-15856000D02*
X9328333Y-15865524D01*
X9328333Y-15865524D02*
X9337857Y-15884571D01*
X9337857Y-15884571D02*
X9347381Y-15922667D01*
X9347381Y-15922667D02*
X9347381Y-15970286D01*
X9347381Y-15970286D02*
X9337857Y-16008381D01*
X9337857Y-16008381D02*
X9328333Y-16027428D01*
X9328333Y-16027428D02*
X9318810Y-16036952D01*
X9318810Y-16036952D02*
X9299762Y-16046476D01*
X9299762Y-16046476D02*
X9280714Y-16046476D01*
X9280714Y-16046476D02*
X9261667Y-16036952D01*
X9261667Y-16036952D02*
X9252143Y-16027428D01*
X9252143Y-16027428D02*
X9242619Y-16008381D01*
X9242619Y-16008381D02*
X9233095Y-15970286D01*
X9233095Y-15970286D02*
X9233095Y-15922667D01*
X9233095Y-15922667D02*
X9242619Y-15884571D01*
X9242619Y-15884571D02*
X9252143Y-15865524D01*
X9252143Y-15865524D02*
X9261667Y-15856000D01*
X9261667Y-15856000D02*
X9280714Y-15846476D01*
X9433095Y-16027428D02*
X9442619Y-16036952D01*
X9442619Y-16036952D02*
X9433095Y-16046476D01*
X9433095Y-16046476D02*
X9423571Y-16036952D01*
X9423571Y-16036952D02*
X9433095Y-16027428D01*
X9433095Y-16027428D02*
X9433095Y-16046476D01*
X9509286Y-15846476D02*
X9642619Y-15846476D01*
X9642619Y-15846476D02*
X9556905Y-16046476D01*
X9804524Y-15846476D02*
X9766429Y-15846476D01*
X9766429Y-15846476D02*
X9747381Y-15856000D01*
X9747381Y-15856000D02*
X9737857Y-15865524D01*
X9737857Y-15865524D02*
X9718810Y-15894095D01*
X9718810Y-15894095D02*
X9709286Y-15932190D01*
X9709286Y-15932190D02*
X9709286Y-16008381D01*
X9709286Y-16008381D02*
X9718810Y-16027428D01*
X9718810Y-16027428D02*
X9728333Y-16036952D01*
X9728333Y-16036952D02*
X9747381Y-16046476D01*
X9747381Y-16046476D02*
X9785476Y-16046476D01*
X9785476Y-16046476D02*
X9804524Y-16036952D01*
X9804524Y-16036952D02*
X9814048Y-16027428D01*
X9814048Y-16027428D02*
X9823571Y-16008381D01*
X9823571Y-16008381D02*
X9823571Y-15960762D01*
X9823571Y-15960762D02*
X9814048Y-15941714D01*
X9814048Y-15941714D02*
X9804524Y-15932190D01*
X9804524Y-15932190D02*
X9785476Y-15922667D01*
X9785476Y-15922667D02*
X9747381Y-15922667D01*
X9747381Y-15922667D02*
X9728333Y-15932190D01*
X9728333Y-15932190D02*
X9718810Y-15941714D01*
X9718810Y-15941714D02*
X9709286Y-15960762D01*
X9899762Y-15865524D02*
X9909286Y-15856000D01*
X9909286Y-15856000D02*
X9928333Y-15846476D01*
X9928333Y-15846476D02*
X9975952Y-15846476D01*
X9975952Y-15846476D02*
X9995000Y-15856000D01*
X9995000Y-15856000D02*
X10004524Y-15865524D01*
X10004524Y-15865524D02*
X10014048Y-15884571D01*
X10014048Y-15884571D02*
X10014048Y-15903619D01*
X10014048Y-15903619D02*
X10004524Y-15932190D01*
X10004524Y-15932190D02*
X9890238Y-16046476D01*
X9890238Y-16046476D02*
X10014048Y-16046476D01*
X10099762Y-16046476D02*
X10099762Y-15913143D01*
X10099762Y-15932190D02*
X10109286Y-15922667D01*
X10109286Y-15922667D02*
X10128333Y-15913143D01*
X10128333Y-15913143D02*
X10156905Y-15913143D01*
X10156905Y-15913143D02*
X10175952Y-15922667D01*
X10175952Y-15922667D02*
X10185476Y-15941714D01*
X10185476Y-15941714D02*
X10185476Y-16046476D01*
X10185476Y-15941714D02*
X10195000Y-15922667D01*
X10195000Y-15922667D02*
X10214048Y-15913143D01*
X10214048Y-15913143D02*
X10242619Y-15913143D01*
X10242619Y-15913143D02*
X10261667Y-15922667D01*
X10261667Y-15922667D02*
X10271191Y-15941714D01*
X10271191Y-15941714D02*
X10271191Y-16046476D01*
X10366429Y-16046476D02*
X10366429Y-15913143D01*
X10366429Y-15932190D02*
X10375952Y-15922667D01*
X10375952Y-15922667D02*
X10395000Y-15913143D01*
X10395000Y-15913143D02*
X10423572Y-15913143D01*
X10423572Y-15913143D02*
X10442619Y-15922667D01*
X10442619Y-15922667D02*
X10452143Y-15941714D01*
X10452143Y-15941714D02*
X10452143Y-16046476D01*
X10452143Y-15941714D02*
X10461667Y-15922667D01*
X10461667Y-15922667D02*
X10480714Y-15913143D01*
X10480714Y-15913143D02*
X10509286Y-15913143D01*
X10509286Y-15913143D02*
X10528333Y-15922667D01*
X10528333Y-15922667D02*
X10537857Y-15941714D01*
X10537857Y-15941714D02*
X10537857Y-16046476D01*
X10895952Y-15836952D02*
X10724524Y-16094095D01*
X11120714Y-15846476D02*
X11139762Y-15846476D01*
X11139762Y-15846476D02*
X11158810Y-15856000D01*
X11158810Y-15856000D02*
X11168333Y-15865524D01*
X11168333Y-15865524D02*
X11177857Y-15884571D01*
X11177857Y-15884571D02*
X11187381Y-15922667D01*
X11187381Y-15922667D02*
X11187381Y-15970286D01*
X11187381Y-15970286D02*
X11177857Y-16008381D01*
X11177857Y-16008381D02*
X11168333Y-16027428D01*
X11168333Y-16027428D02*
X11158810Y-16036952D01*
X11158810Y-16036952D02*
X11139762Y-16046476D01*
X11139762Y-16046476D02*
X11120714Y-16046476D01*
X11120714Y-16046476D02*
X11101667Y-16036952D01*
X11101667Y-16036952D02*
X11092143Y-16027428D01*
X11092143Y-16027428D02*
X11082619Y-16008381D01*
X11082619Y-16008381D02*
X11073095Y-15970286D01*
X11073095Y-15970286D02*
X11073095Y-15922667D01*
X11073095Y-15922667D02*
X11082619Y-15884571D01*
X11082619Y-15884571D02*
X11092143Y-15865524D01*
X11092143Y-15865524D02*
X11101667Y-15856000D01*
X11101667Y-15856000D02*
X11120714Y-15846476D01*
X11273095Y-16027428D02*
X11282619Y-16036952D01*
X11282619Y-16036952D02*
X11273095Y-16046476D01*
X11273095Y-16046476D02*
X11263571Y-16036952D01*
X11263571Y-16036952D02*
X11273095Y-16027428D01*
X11273095Y-16027428D02*
X11273095Y-16046476D01*
X11406429Y-15846476D02*
X11425476Y-15846476D01*
X11425476Y-15846476D02*
X11444524Y-15856000D01*
X11444524Y-15856000D02*
X11454048Y-15865524D01*
X11454048Y-15865524D02*
X11463571Y-15884571D01*
X11463571Y-15884571D02*
X11473095Y-15922667D01*
X11473095Y-15922667D02*
X11473095Y-15970286D01*
X11473095Y-15970286D02*
X11463571Y-16008381D01*
X11463571Y-16008381D02*
X11454048Y-16027428D01*
X11454048Y-16027428D02*
X11444524Y-16036952D01*
X11444524Y-16036952D02*
X11425476Y-16046476D01*
X11425476Y-16046476D02*
X11406429Y-16046476D01*
X11406429Y-16046476D02*
X11387381Y-16036952D01*
X11387381Y-16036952D02*
X11377857Y-16027428D01*
X11377857Y-16027428D02*
X11368333Y-16008381D01*
X11368333Y-16008381D02*
X11358810Y-15970286D01*
X11358810Y-15970286D02*
X11358810Y-15922667D01*
X11358810Y-15922667D02*
X11368333Y-15884571D01*
X11368333Y-15884571D02*
X11377857Y-15865524D01*
X11377857Y-15865524D02*
X11387381Y-15856000D01*
X11387381Y-15856000D02*
X11406429Y-15846476D01*
X11539762Y-15846476D02*
X11663571Y-15846476D01*
X11663571Y-15846476D02*
X11596905Y-15922667D01*
X11596905Y-15922667D02*
X11625476Y-15922667D01*
X11625476Y-15922667D02*
X11644524Y-15932190D01*
X11644524Y-15932190D02*
X11654048Y-15941714D01*
X11654048Y-15941714D02*
X11663571Y-15960762D01*
X11663571Y-15960762D02*
X11663571Y-16008381D01*
X11663571Y-16008381D02*
X11654048Y-16027428D01*
X11654048Y-16027428D02*
X11644524Y-16036952D01*
X11644524Y-16036952D02*
X11625476Y-16046476D01*
X11625476Y-16046476D02*
X11568333Y-16046476D01*
X11568333Y-16046476D02*
X11549286Y-16036952D01*
X11549286Y-16036952D02*
X11539762Y-16027428D01*
X11787381Y-15846476D02*
X11806429Y-15846476D01*
X11806429Y-15846476D02*
X11825476Y-15856000D01*
X11825476Y-15856000D02*
X11835000Y-15865524D01*
X11835000Y-15865524D02*
X11844524Y-15884571D01*
X11844524Y-15884571D02*
X11854048Y-15922667D01*
X11854048Y-15922667D02*
X11854048Y-15970286D01*
X11854048Y-15970286D02*
X11844524Y-16008381D01*
X11844524Y-16008381D02*
X11835000Y-16027428D01*
X11835000Y-16027428D02*
X11825476Y-16036952D01*
X11825476Y-16036952D02*
X11806429Y-16046476D01*
X11806429Y-16046476D02*
X11787381Y-16046476D01*
X11787381Y-16046476D02*
X11768333Y-16036952D01*
X11768333Y-16036952D02*
X11758810Y-16027428D01*
X11758810Y-16027428D02*
X11749286Y-16008381D01*
X11749286Y-16008381D02*
X11739762Y-15970286D01*
X11739762Y-15970286D02*
X11739762Y-15922667D01*
X11739762Y-15922667D02*
X11749286Y-15884571D01*
X11749286Y-15884571D02*
X11758810Y-15865524D01*
X11758810Y-15865524D02*
X11768333Y-15856000D01*
X11768333Y-15856000D02*
X11787381Y-15846476D01*
X11977857Y-15846476D02*
X11996905Y-15846476D01*
X11996905Y-15846476D02*
X12015952Y-15856000D01*
X12015952Y-15856000D02*
X12025476Y-15865524D01*
X12025476Y-15865524D02*
X12035000Y-15884571D01*
X12035000Y-15884571D02*
X12044524Y-15922667D01*
X12044524Y-15922667D02*
X12044524Y-15970286D01*
X12044524Y-15970286D02*
X12035000Y-16008381D01*
X12035000Y-16008381D02*
X12025476Y-16027428D01*
X12025476Y-16027428D02*
X12015952Y-16036952D01*
X12015952Y-16036952D02*
X11996905Y-16046476D01*
X11996905Y-16046476D02*
X11977857Y-16046476D01*
X11977857Y-16046476D02*
X11958810Y-16036952D01*
X11958810Y-16036952D02*
X11949286Y-16027428D01*
X11949286Y-16027428D02*
X11939762Y-16008381D01*
X11939762Y-16008381D02*
X11930238Y-15970286D01*
X11930238Y-15970286D02*
X11930238Y-15922667D01*
X11930238Y-15922667D02*
X11939762Y-15884571D01*
X11939762Y-15884571D02*
X11949286Y-15865524D01*
X11949286Y-15865524D02*
X11958810Y-15856000D01*
X11958810Y-15856000D02*
X11977857Y-15846476D01*
X12120714Y-15846476D02*
X12120714Y-15884571D01*
X12196905Y-15846476D02*
X12196905Y-15884571D01*
X12459762Y-16122667D02*
X12450238Y-16113143D01*
X12450238Y-16113143D02*
X12431191Y-16084571D01*
X12431191Y-16084571D02*
X12421667Y-16065524D01*
X12421667Y-16065524D02*
X12412143Y-16036952D01*
X12412143Y-16036952D02*
X12402619Y-15989333D01*
X12402619Y-15989333D02*
X12402619Y-15951238D01*
X12402619Y-15951238D02*
X12412143Y-15903619D01*
X12412143Y-15903619D02*
X12421667Y-15875048D01*
X12421667Y-15875048D02*
X12431191Y-15856000D01*
X12431191Y-15856000D02*
X12450238Y-15827428D01*
X12450238Y-15827428D02*
X12459762Y-15817905D01*
X12621667Y-15913143D02*
X12621667Y-16046476D01*
X12574048Y-15836952D02*
X12526429Y-15979809D01*
X12526429Y-15979809D02*
X12650238Y-15979809D01*
X12755000Y-15932190D02*
X12735952Y-15922667D01*
X12735952Y-15922667D02*
X12726429Y-15913143D01*
X12726429Y-15913143D02*
X12716905Y-15894095D01*
X12716905Y-15894095D02*
X12716905Y-15884571D01*
X12716905Y-15884571D02*
X12726429Y-15865524D01*
X12726429Y-15865524D02*
X12735952Y-15856000D01*
X12735952Y-15856000D02*
X12755000Y-15846476D01*
X12755000Y-15846476D02*
X12793095Y-15846476D01*
X12793095Y-15846476D02*
X12812143Y-15856000D01*
X12812143Y-15856000D02*
X12821667Y-15865524D01*
X12821667Y-15865524D02*
X12831191Y-15884571D01*
X12831191Y-15884571D02*
X12831191Y-15894095D01*
X12831191Y-15894095D02*
X12821667Y-15913143D01*
X12821667Y-15913143D02*
X12812143Y-15922667D01*
X12812143Y-15922667D02*
X12793095Y-15932190D01*
X12793095Y-15932190D02*
X12755000Y-15932190D01*
X12755000Y-15932190D02*
X12735952Y-15941714D01*
X12735952Y-15941714D02*
X12726429Y-15951238D01*
X12726429Y-15951238D02*
X12716905Y-15970286D01*
X12716905Y-15970286D02*
X12716905Y-16008381D01*
X12716905Y-16008381D02*
X12726429Y-16027428D01*
X12726429Y-16027428D02*
X12735952Y-16036952D01*
X12735952Y-16036952D02*
X12755000Y-16046476D01*
X12755000Y-16046476D02*
X12793095Y-16046476D01*
X12793095Y-16046476D02*
X12812143Y-16036952D01*
X12812143Y-16036952D02*
X12821667Y-16027428D01*
X12821667Y-16027428D02*
X12831191Y-16008381D01*
X12831191Y-16008381D02*
X12831191Y-15970286D01*
X12831191Y-15970286D02*
X12821667Y-15951238D01*
X12821667Y-15951238D02*
X12812143Y-15941714D01*
X12812143Y-15941714D02*
X12793095Y-15932190D01*
X13036905Y-16046476D02*
X13036905Y-15846476D01*
X13122619Y-16046476D02*
X13122619Y-15941714D01*
X13122619Y-15941714D02*
X13113095Y-15922667D01*
X13113095Y-15922667D02*
X13094048Y-15913143D01*
X13094048Y-15913143D02*
X13065476Y-15913143D01*
X13065476Y-15913143D02*
X13046429Y-15922667D01*
X13046429Y-15922667D02*
X13036905Y-15932190D01*
X13246429Y-16046476D02*
X13227381Y-16036952D01*
X13227381Y-16036952D02*
X13217857Y-16027428D01*
X13217857Y-16027428D02*
X13208333Y-16008381D01*
X13208333Y-16008381D02*
X13208333Y-15951238D01*
X13208333Y-15951238D02*
X13217857Y-15932190D01*
X13217857Y-15932190D02*
X13227381Y-15922667D01*
X13227381Y-15922667D02*
X13246429Y-15913143D01*
X13246429Y-15913143D02*
X13275000Y-15913143D01*
X13275000Y-15913143D02*
X13294048Y-15922667D01*
X13294048Y-15922667D02*
X13303572Y-15932190D01*
X13303572Y-15932190D02*
X13313095Y-15951238D01*
X13313095Y-15951238D02*
X13313095Y-16008381D01*
X13313095Y-16008381D02*
X13303572Y-16027428D01*
X13303572Y-16027428D02*
X13294048Y-16036952D01*
X13294048Y-16036952D02*
X13275000Y-16046476D01*
X13275000Y-16046476D02*
X13246429Y-16046476D01*
X13427381Y-16046476D02*
X13408333Y-16036952D01*
X13408333Y-16036952D02*
X13398810Y-16017905D01*
X13398810Y-16017905D02*
X13398810Y-15846476D01*
X13579762Y-16036952D02*
X13560714Y-16046476D01*
X13560714Y-16046476D02*
X13522619Y-16046476D01*
X13522619Y-16046476D02*
X13503572Y-16036952D01*
X13503572Y-16036952D02*
X13494048Y-16017905D01*
X13494048Y-16017905D02*
X13494048Y-15941714D01*
X13494048Y-15941714D02*
X13503572Y-15922667D01*
X13503572Y-15922667D02*
X13522619Y-15913143D01*
X13522619Y-15913143D02*
X13560714Y-15913143D01*
X13560714Y-15913143D02*
X13579762Y-15922667D01*
X13579762Y-15922667D02*
X13589286Y-15941714D01*
X13589286Y-15941714D02*
X13589286Y-15960762D01*
X13589286Y-15960762D02*
X13494048Y-15979809D01*
X13665476Y-16036952D02*
X13684524Y-16046476D01*
X13684524Y-16046476D02*
X13722619Y-16046476D01*
X13722619Y-16046476D02*
X13741667Y-16036952D01*
X13741667Y-16036952D02*
X13751191Y-16017905D01*
X13751191Y-16017905D02*
X13751191Y-16008381D01*
X13751191Y-16008381D02*
X13741667Y-15989333D01*
X13741667Y-15989333D02*
X13722619Y-15979809D01*
X13722619Y-15979809D02*
X13694048Y-15979809D01*
X13694048Y-15979809D02*
X13675000Y-15970286D01*
X13675000Y-15970286D02*
X13665476Y-15951238D01*
X13665476Y-15951238D02*
X13665476Y-15941714D01*
X13665476Y-15941714D02*
X13675000Y-15922667D01*
X13675000Y-15922667D02*
X13694048Y-15913143D01*
X13694048Y-15913143D02*
X13722619Y-15913143D01*
X13722619Y-15913143D02*
X13741667Y-15922667D01*
X13817857Y-16122667D02*
X13827381Y-16113143D01*
X13827381Y-16113143D02*
X13846429Y-16084571D01*
X13846429Y-16084571D02*
X13855953Y-16065524D01*
X13855953Y-16065524D02*
X13865476Y-16036952D01*
X13865476Y-16036952D02*
X13875000Y-15989333D01*
X13875000Y-15989333D02*
X13875000Y-15951238D01*
X13875000Y-15951238D02*
X13865476Y-15903619D01*
X13865476Y-15903619D02*
X13855953Y-15875048D01*
X13855953Y-15875048D02*
X13846429Y-15856000D01*
X13846429Y-15856000D02*
X13827381Y-15827428D01*
X13827381Y-15827428D02*
X13817857Y-15817905D01*
D10*
X8980356Y-16272356D02*
X8980356Y-16201644D01*
X8909644Y-16201644D01*
X8909644Y-16272356D01*
X8980356Y-16272356D01*
D11*
X9347381Y-16310476D02*
X9233095Y-16310476D01*
X9290238Y-16310476D02*
X9290238Y-16110476D01*
X9290238Y-16110476D02*
X9271190Y-16139048D01*
X9271190Y-16139048D02*
X9252143Y-16158095D01*
X9252143Y-16158095D02*
X9233095Y-16167619D01*
X9433095Y-16291428D02*
X9442619Y-16300952D01*
X9442619Y-16300952D02*
X9433095Y-16310476D01*
X9433095Y-16310476D02*
X9423571Y-16300952D01*
X9423571Y-16300952D02*
X9433095Y-16291428D01*
X9433095Y-16291428D02*
X9433095Y-16310476D01*
X9566429Y-16110476D02*
X9585476Y-16110476D01*
X9585476Y-16110476D02*
X9604524Y-16120000D01*
X9604524Y-16120000D02*
X9614048Y-16129524D01*
X9614048Y-16129524D02*
X9623571Y-16148571D01*
X9623571Y-16148571D02*
X9633095Y-16186667D01*
X9633095Y-16186667D02*
X9633095Y-16234286D01*
X9633095Y-16234286D02*
X9623571Y-16272381D01*
X9623571Y-16272381D02*
X9614048Y-16291428D01*
X9614048Y-16291428D02*
X9604524Y-16300952D01*
X9604524Y-16300952D02*
X9585476Y-16310476D01*
X9585476Y-16310476D02*
X9566429Y-16310476D01*
X9566429Y-16310476D02*
X9547381Y-16300952D01*
X9547381Y-16300952D02*
X9537857Y-16291428D01*
X9537857Y-16291428D02*
X9528333Y-16272381D01*
X9528333Y-16272381D02*
X9518810Y-16234286D01*
X9518810Y-16234286D02*
X9518810Y-16186667D01*
X9518810Y-16186667D02*
X9528333Y-16148571D01*
X9528333Y-16148571D02*
X9537857Y-16129524D01*
X9537857Y-16129524D02*
X9547381Y-16120000D01*
X9547381Y-16120000D02*
X9566429Y-16110476D01*
X9756905Y-16110476D02*
X9775952Y-16110476D01*
X9775952Y-16110476D02*
X9795000Y-16120000D01*
X9795000Y-16120000D02*
X9804524Y-16129524D01*
X9804524Y-16129524D02*
X9814048Y-16148571D01*
X9814048Y-16148571D02*
X9823571Y-16186667D01*
X9823571Y-16186667D02*
X9823571Y-16234286D01*
X9823571Y-16234286D02*
X9814048Y-16272381D01*
X9814048Y-16272381D02*
X9804524Y-16291428D01*
X9804524Y-16291428D02*
X9795000Y-16300952D01*
X9795000Y-16300952D02*
X9775952Y-16310476D01*
X9775952Y-16310476D02*
X9756905Y-16310476D01*
X9756905Y-16310476D02*
X9737857Y-16300952D01*
X9737857Y-16300952D02*
X9728333Y-16291428D01*
X9728333Y-16291428D02*
X9718810Y-16272381D01*
X9718810Y-16272381D02*
X9709286Y-16234286D01*
X9709286Y-16234286D02*
X9709286Y-16186667D01*
X9709286Y-16186667D02*
X9718810Y-16148571D01*
X9718810Y-16148571D02*
X9728333Y-16129524D01*
X9728333Y-16129524D02*
X9737857Y-16120000D01*
X9737857Y-16120000D02*
X9756905Y-16110476D01*
X9947381Y-16110476D02*
X9966429Y-16110476D01*
X9966429Y-16110476D02*
X9985476Y-16120000D01*
X9985476Y-16120000D02*
X9995000Y-16129524D01*
X9995000Y-16129524D02*
X10004524Y-16148571D01*
X10004524Y-16148571D02*
X10014048Y-16186667D01*
X10014048Y-16186667D02*
X10014048Y-16234286D01*
X10014048Y-16234286D02*
X10004524Y-16272381D01*
X10004524Y-16272381D02*
X9995000Y-16291428D01*
X9995000Y-16291428D02*
X9985476Y-16300952D01*
X9985476Y-16300952D02*
X9966429Y-16310476D01*
X9966429Y-16310476D02*
X9947381Y-16310476D01*
X9947381Y-16310476D02*
X9928333Y-16300952D01*
X9928333Y-16300952D02*
X9918810Y-16291428D01*
X9918810Y-16291428D02*
X9909286Y-16272381D01*
X9909286Y-16272381D02*
X9899762Y-16234286D01*
X9899762Y-16234286D02*
X9899762Y-16186667D01*
X9899762Y-16186667D02*
X9909286Y-16148571D01*
X9909286Y-16148571D02*
X9918810Y-16129524D01*
X9918810Y-16129524D02*
X9928333Y-16120000D01*
X9928333Y-16120000D02*
X9947381Y-16110476D01*
X10099762Y-16310476D02*
X10099762Y-16177143D01*
X10099762Y-16196190D02*
X10109286Y-16186667D01*
X10109286Y-16186667D02*
X10128333Y-16177143D01*
X10128333Y-16177143D02*
X10156905Y-16177143D01*
X10156905Y-16177143D02*
X10175952Y-16186667D01*
X10175952Y-16186667D02*
X10185476Y-16205714D01*
X10185476Y-16205714D02*
X10185476Y-16310476D01*
X10185476Y-16205714D02*
X10195000Y-16186667D01*
X10195000Y-16186667D02*
X10214048Y-16177143D01*
X10214048Y-16177143D02*
X10242619Y-16177143D01*
X10242619Y-16177143D02*
X10261667Y-16186667D01*
X10261667Y-16186667D02*
X10271191Y-16205714D01*
X10271191Y-16205714D02*
X10271191Y-16310476D01*
X10366429Y-16310476D02*
X10366429Y-16177143D01*
X10366429Y-16196190D02*
X10375952Y-16186667D01*
X10375952Y-16186667D02*
X10395000Y-16177143D01*
X10395000Y-16177143D02*
X10423572Y-16177143D01*
X10423572Y-16177143D02*
X10442619Y-16186667D01*
X10442619Y-16186667D02*
X10452143Y-16205714D01*
X10452143Y-16205714D02*
X10452143Y-16310476D01*
X10452143Y-16205714D02*
X10461667Y-16186667D01*
X10461667Y-16186667D02*
X10480714Y-16177143D01*
X10480714Y-16177143D02*
X10509286Y-16177143D01*
X10509286Y-16177143D02*
X10528333Y-16186667D01*
X10528333Y-16186667D02*
X10537857Y-16205714D01*
X10537857Y-16205714D02*
X10537857Y-16310476D01*
X10895952Y-16100952D02*
X10724524Y-16358095D01*
X11120714Y-16110476D02*
X11139762Y-16110476D01*
X11139762Y-16110476D02*
X11158810Y-16120000D01*
X11158810Y-16120000D02*
X11168333Y-16129524D01*
X11168333Y-16129524D02*
X11177857Y-16148571D01*
X11177857Y-16148571D02*
X11187381Y-16186667D01*
X11187381Y-16186667D02*
X11187381Y-16234286D01*
X11187381Y-16234286D02*
X11177857Y-16272381D01*
X11177857Y-16272381D02*
X11168333Y-16291428D01*
X11168333Y-16291428D02*
X11158810Y-16300952D01*
X11158810Y-16300952D02*
X11139762Y-16310476D01*
X11139762Y-16310476D02*
X11120714Y-16310476D01*
X11120714Y-16310476D02*
X11101667Y-16300952D01*
X11101667Y-16300952D02*
X11092143Y-16291428D01*
X11092143Y-16291428D02*
X11082619Y-16272381D01*
X11082619Y-16272381D02*
X11073095Y-16234286D01*
X11073095Y-16234286D02*
X11073095Y-16186667D01*
X11073095Y-16186667D02*
X11082619Y-16148571D01*
X11082619Y-16148571D02*
X11092143Y-16129524D01*
X11092143Y-16129524D02*
X11101667Y-16120000D01*
X11101667Y-16120000D02*
X11120714Y-16110476D01*
X11273095Y-16291428D02*
X11282619Y-16300952D01*
X11282619Y-16300952D02*
X11273095Y-16310476D01*
X11273095Y-16310476D02*
X11263571Y-16300952D01*
X11263571Y-16300952D02*
X11273095Y-16291428D01*
X11273095Y-16291428D02*
X11273095Y-16310476D01*
X11406429Y-16110476D02*
X11425476Y-16110476D01*
X11425476Y-16110476D02*
X11444524Y-16120000D01*
X11444524Y-16120000D02*
X11454048Y-16129524D01*
X11454048Y-16129524D02*
X11463571Y-16148571D01*
X11463571Y-16148571D02*
X11473095Y-16186667D01*
X11473095Y-16186667D02*
X11473095Y-16234286D01*
X11473095Y-16234286D02*
X11463571Y-16272381D01*
X11463571Y-16272381D02*
X11454048Y-16291428D01*
X11454048Y-16291428D02*
X11444524Y-16300952D01*
X11444524Y-16300952D02*
X11425476Y-16310476D01*
X11425476Y-16310476D02*
X11406429Y-16310476D01*
X11406429Y-16310476D02*
X11387381Y-16300952D01*
X11387381Y-16300952D02*
X11377857Y-16291428D01*
X11377857Y-16291428D02*
X11368333Y-16272381D01*
X11368333Y-16272381D02*
X11358810Y-16234286D01*
X11358810Y-16234286D02*
X11358810Y-16186667D01*
X11358810Y-16186667D02*
X11368333Y-16148571D01*
X11368333Y-16148571D02*
X11377857Y-16129524D01*
X11377857Y-16129524D02*
X11387381Y-16120000D01*
X11387381Y-16120000D02*
X11406429Y-16110476D01*
X11539762Y-16110476D02*
X11663571Y-16110476D01*
X11663571Y-16110476D02*
X11596905Y-16186667D01*
X11596905Y-16186667D02*
X11625476Y-16186667D01*
X11625476Y-16186667D02*
X11644524Y-16196190D01*
X11644524Y-16196190D02*
X11654048Y-16205714D01*
X11654048Y-16205714D02*
X11663571Y-16224762D01*
X11663571Y-16224762D02*
X11663571Y-16272381D01*
X11663571Y-16272381D02*
X11654048Y-16291428D01*
X11654048Y-16291428D02*
X11644524Y-16300952D01*
X11644524Y-16300952D02*
X11625476Y-16310476D01*
X11625476Y-16310476D02*
X11568333Y-16310476D01*
X11568333Y-16310476D02*
X11549286Y-16300952D01*
X11549286Y-16300952D02*
X11539762Y-16291428D01*
X11758810Y-16310476D02*
X11796905Y-16310476D01*
X11796905Y-16310476D02*
X11815952Y-16300952D01*
X11815952Y-16300952D02*
X11825476Y-16291428D01*
X11825476Y-16291428D02*
X11844524Y-16262857D01*
X11844524Y-16262857D02*
X11854048Y-16224762D01*
X11854048Y-16224762D02*
X11854048Y-16148571D01*
X11854048Y-16148571D02*
X11844524Y-16129524D01*
X11844524Y-16129524D02*
X11835000Y-16120000D01*
X11835000Y-16120000D02*
X11815952Y-16110476D01*
X11815952Y-16110476D02*
X11777857Y-16110476D01*
X11777857Y-16110476D02*
X11758810Y-16120000D01*
X11758810Y-16120000D02*
X11749286Y-16129524D01*
X11749286Y-16129524D02*
X11739762Y-16148571D01*
X11739762Y-16148571D02*
X11739762Y-16196190D01*
X11739762Y-16196190D02*
X11749286Y-16215238D01*
X11749286Y-16215238D02*
X11758810Y-16224762D01*
X11758810Y-16224762D02*
X11777857Y-16234286D01*
X11777857Y-16234286D02*
X11815952Y-16234286D01*
X11815952Y-16234286D02*
X11835000Y-16224762D01*
X11835000Y-16224762D02*
X11844524Y-16215238D01*
X11844524Y-16215238D02*
X11854048Y-16196190D01*
X12025476Y-16177143D02*
X12025476Y-16310476D01*
X11977857Y-16100952D02*
X11930238Y-16243809D01*
X11930238Y-16243809D02*
X12054048Y-16243809D01*
X12120714Y-16110476D02*
X12120714Y-16148571D01*
X12196905Y-16110476D02*
X12196905Y-16148571D01*
X12459762Y-16386667D02*
X12450238Y-16377143D01*
X12450238Y-16377143D02*
X12431191Y-16348571D01*
X12431191Y-16348571D02*
X12421667Y-16329524D01*
X12421667Y-16329524D02*
X12412143Y-16300952D01*
X12412143Y-16300952D02*
X12402619Y-16253333D01*
X12402619Y-16253333D02*
X12402619Y-16215238D01*
X12402619Y-16215238D02*
X12412143Y-16167619D01*
X12412143Y-16167619D02*
X12421667Y-16139048D01*
X12421667Y-16139048D02*
X12431191Y-16120000D01*
X12431191Y-16120000D02*
X12450238Y-16091428D01*
X12450238Y-16091428D02*
X12459762Y-16081905D01*
X12621667Y-16177143D02*
X12621667Y-16310476D01*
X12574048Y-16100952D02*
X12526429Y-16243809D01*
X12526429Y-16243809D02*
X12650238Y-16243809D01*
X12755000Y-16196190D02*
X12735952Y-16186667D01*
X12735952Y-16186667D02*
X12726429Y-16177143D01*
X12726429Y-16177143D02*
X12716905Y-16158095D01*
X12716905Y-16158095D02*
X12716905Y-16148571D01*
X12716905Y-16148571D02*
X12726429Y-16129524D01*
X12726429Y-16129524D02*
X12735952Y-16120000D01*
X12735952Y-16120000D02*
X12755000Y-16110476D01*
X12755000Y-16110476D02*
X12793095Y-16110476D01*
X12793095Y-16110476D02*
X12812143Y-16120000D01*
X12812143Y-16120000D02*
X12821667Y-16129524D01*
X12821667Y-16129524D02*
X12831191Y-16148571D01*
X12831191Y-16148571D02*
X12831191Y-16158095D01*
X12831191Y-16158095D02*
X12821667Y-16177143D01*
X12821667Y-16177143D02*
X12812143Y-16186667D01*
X12812143Y-16186667D02*
X12793095Y-16196190D01*
X12793095Y-16196190D02*
X12755000Y-16196190D01*
X12755000Y-16196190D02*
X12735952Y-16205714D01*
X12735952Y-16205714D02*
X12726429Y-16215238D01*
X12726429Y-16215238D02*
X12716905Y-16234286D01*
X12716905Y-16234286D02*
X12716905Y-16272381D01*
X12716905Y-16272381D02*
X12726429Y-16291428D01*
X12726429Y-16291428D02*
X12735952Y-16300952D01*
X12735952Y-16300952D02*
X12755000Y-16310476D01*
X12755000Y-16310476D02*
X12793095Y-16310476D01*
X12793095Y-16310476D02*
X12812143Y-16300952D01*
X12812143Y-16300952D02*
X12821667Y-16291428D01*
X12821667Y-16291428D02*
X12831191Y-16272381D01*
X12831191Y-16272381D02*
X12831191Y-16234286D01*
X12831191Y-16234286D02*
X12821667Y-16215238D01*
X12821667Y-16215238D02*
X12812143Y-16205714D01*
X12812143Y-16205714D02*
X12793095Y-16196190D01*
X13036905Y-16310476D02*
X13036905Y-16110476D01*
X13122619Y-16310476D02*
X13122619Y-16205714D01*
X13122619Y-16205714D02*
X13113095Y-16186667D01*
X13113095Y-16186667D02*
X13094048Y-16177143D01*
X13094048Y-16177143D02*
X13065476Y-16177143D01*
X13065476Y-16177143D02*
X13046429Y-16186667D01*
X13046429Y-16186667D02*
X13036905Y-16196190D01*
X13246429Y-16310476D02*
X13227381Y-16300952D01*
X13227381Y-16300952D02*
X13217857Y-16291428D01*
X13217857Y-16291428D02*
X13208333Y-16272381D01*
X13208333Y-16272381D02*
X13208333Y-16215238D01*
X13208333Y-16215238D02*
X13217857Y-16196190D01*
X13217857Y-16196190D02*
X13227381Y-16186667D01*
X13227381Y-16186667D02*
X13246429Y-16177143D01*
X13246429Y-16177143D02*
X13275000Y-16177143D01*
X13275000Y-16177143D02*
X13294048Y-16186667D01*
X13294048Y-16186667D02*
X13303572Y-16196190D01*
X13303572Y-16196190D02*
X13313095Y-16215238D01*
X13313095Y-16215238D02*
X13313095Y-16272381D01*
X13313095Y-16272381D02*
X13303572Y-16291428D01*
X13303572Y-16291428D02*
X13294048Y-16300952D01*
X13294048Y-16300952D02*
X13275000Y-16310476D01*
X13275000Y-16310476D02*
X13246429Y-16310476D01*
X13427381Y-16310476D02*
X13408333Y-16300952D01*
X13408333Y-16300952D02*
X13398810Y-16281905D01*
X13398810Y-16281905D02*
X13398810Y-16110476D01*
X13579762Y-16300952D02*
X13560714Y-16310476D01*
X13560714Y-16310476D02*
X13522619Y-16310476D01*
X13522619Y-16310476D02*
X13503572Y-16300952D01*
X13503572Y-16300952D02*
X13494048Y-16281905D01*
X13494048Y-16281905D02*
X13494048Y-16205714D01*
X13494048Y-16205714D02*
X13503572Y-16186667D01*
X13503572Y-16186667D02*
X13522619Y-16177143D01*
X13522619Y-16177143D02*
X13560714Y-16177143D01*
X13560714Y-16177143D02*
X13579762Y-16186667D01*
X13579762Y-16186667D02*
X13589286Y-16205714D01*
X13589286Y-16205714D02*
X13589286Y-16224762D01*
X13589286Y-16224762D02*
X13494048Y-16243809D01*
X13665476Y-16300952D02*
X13684524Y-16310476D01*
X13684524Y-16310476D02*
X13722619Y-16310476D01*
X13722619Y-16310476D02*
X13741667Y-16300952D01*
X13741667Y-16300952D02*
X13751191Y-16281905D01*
X13751191Y-16281905D02*
X13751191Y-16272381D01*
X13751191Y-16272381D02*
X13741667Y-16253333D01*
X13741667Y-16253333D02*
X13722619Y-16243809D01*
X13722619Y-16243809D02*
X13694048Y-16243809D01*
X13694048Y-16243809D02*
X13675000Y-16234286D01*
X13675000Y-16234286D02*
X13665476Y-16215238D01*
X13665476Y-16215238D02*
X13665476Y-16205714D01*
X13665476Y-16205714D02*
X13675000Y-16186667D01*
X13675000Y-16186667D02*
X13694048Y-16177143D01*
X13694048Y-16177143D02*
X13722619Y-16177143D01*
X13722619Y-16177143D02*
X13741667Y-16186667D01*
X13817857Y-16386667D02*
X13827381Y-16377143D01*
X13827381Y-16377143D02*
X13846429Y-16348571D01*
X13846429Y-16348571D02*
X13855953Y-16329524D01*
X13855953Y-16329524D02*
X13865476Y-16300952D01*
X13865476Y-16300952D02*
X13875000Y-16253333D01*
X13875000Y-16253333D02*
X13875000Y-16215238D01*
X13875000Y-16215238D02*
X13865476Y-16167619D01*
X13865476Y-16167619D02*
X13855953Y-16139048D01*
X13855953Y-16139048D02*
X13846429Y-16120000D01*
X13846429Y-16120000D02*
X13827381Y-16091428D01*
X13827381Y-16091428D02*
X13817857Y-16081905D01*
X8895000Y-16601000D02*
X8995000Y-16501000D01*
X8895000Y-16401000D01*
X8795000Y-16501000D01*
X8895000Y-16601000D01*
X9233095Y-16393524D02*
X9242619Y-16384000D01*
X9242619Y-16384000D02*
X9261667Y-16374476D01*
X9261667Y-16374476D02*
X9309286Y-16374476D01*
X9309286Y-16374476D02*
X9328333Y-16384000D01*
X9328333Y-16384000D02*
X9337857Y-16393524D01*
X9337857Y-16393524D02*
X9347381Y-16412571D01*
X9347381Y-16412571D02*
X9347381Y-16431619D01*
X9347381Y-16431619D02*
X9337857Y-16460190D01*
X9337857Y-16460190D02*
X9223571Y-16574476D01*
X9223571Y-16574476D02*
X9347381Y-16574476D01*
X9433095Y-16555428D02*
X9442619Y-16564952D01*
X9442619Y-16564952D02*
X9433095Y-16574476D01*
X9433095Y-16574476D02*
X9423571Y-16564952D01*
X9423571Y-16564952D02*
X9433095Y-16555428D01*
X9433095Y-16555428D02*
X9433095Y-16574476D01*
X9614048Y-16441143D02*
X9614048Y-16574476D01*
X9566429Y-16364952D02*
X9518810Y-16507809D01*
X9518810Y-16507809D02*
X9642619Y-16507809D01*
X9756905Y-16374476D02*
X9775952Y-16374476D01*
X9775952Y-16374476D02*
X9795000Y-16384000D01*
X9795000Y-16384000D02*
X9804524Y-16393524D01*
X9804524Y-16393524D02*
X9814048Y-16412571D01*
X9814048Y-16412571D02*
X9823571Y-16450667D01*
X9823571Y-16450667D02*
X9823571Y-16498286D01*
X9823571Y-16498286D02*
X9814048Y-16536381D01*
X9814048Y-16536381D02*
X9804524Y-16555428D01*
X9804524Y-16555428D02*
X9795000Y-16564952D01*
X9795000Y-16564952D02*
X9775952Y-16574476D01*
X9775952Y-16574476D02*
X9756905Y-16574476D01*
X9756905Y-16574476D02*
X9737857Y-16564952D01*
X9737857Y-16564952D02*
X9728333Y-16555428D01*
X9728333Y-16555428D02*
X9718810Y-16536381D01*
X9718810Y-16536381D02*
X9709286Y-16498286D01*
X9709286Y-16498286D02*
X9709286Y-16450667D01*
X9709286Y-16450667D02*
X9718810Y-16412571D01*
X9718810Y-16412571D02*
X9728333Y-16393524D01*
X9728333Y-16393524D02*
X9737857Y-16384000D01*
X9737857Y-16384000D02*
X9756905Y-16374476D01*
X9947381Y-16374476D02*
X9966429Y-16374476D01*
X9966429Y-16374476D02*
X9985476Y-16384000D01*
X9985476Y-16384000D02*
X9995000Y-16393524D01*
X9995000Y-16393524D02*
X10004524Y-16412571D01*
X10004524Y-16412571D02*
X10014048Y-16450667D01*
X10014048Y-16450667D02*
X10014048Y-16498286D01*
X10014048Y-16498286D02*
X10004524Y-16536381D01*
X10004524Y-16536381D02*
X9995000Y-16555428D01*
X9995000Y-16555428D02*
X9985476Y-16564952D01*
X9985476Y-16564952D02*
X9966429Y-16574476D01*
X9966429Y-16574476D02*
X9947381Y-16574476D01*
X9947381Y-16574476D02*
X9928333Y-16564952D01*
X9928333Y-16564952D02*
X9918810Y-16555428D01*
X9918810Y-16555428D02*
X9909286Y-16536381D01*
X9909286Y-16536381D02*
X9899762Y-16498286D01*
X9899762Y-16498286D02*
X9899762Y-16450667D01*
X9899762Y-16450667D02*
X9909286Y-16412571D01*
X9909286Y-16412571D02*
X9918810Y-16393524D01*
X9918810Y-16393524D02*
X9928333Y-16384000D01*
X9928333Y-16384000D02*
X9947381Y-16374476D01*
X10099762Y-16574476D02*
X10099762Y-16441143D01*
X10099762Y-16460190D02*
X10109286Y-16450667D01*
X10109286Y-16450667D02*
X10128333Y-16441143D01*
X10128333Y-16441143D02*
X10156905Y-16441143D01*
X10156905Y-16441143D02*
X10175952Y-16450667D01*
X10175952Y-16450667D02*
X10185476Y-16469714D01*
X10185476Y-16469714D02*
X10185476Y-16574476D01*
X10185476Y-16469714D02*
X10195000Y-16450667D01*
X10195000Y-16450667D02*
X10214048Y-16441143D01*
X10214048Y-16441143D02*
X10242619Y-16441143D01*
X10242619Y-16441143D02*
X10261667Y-16450667D01*
X10261667Y-16450667D02*
X10271191Y-16469714D01*
X10271191Y-16469714D02*
X10271191Y-16574476D01*
X10366429Y-16574476D02*
X10366429Y-16441143D01*
X10366429Y-16460190D02*
X10375952Y-16450667D01*
X10375952Y-16450667D02*
X10395000Y-16441143D01*
X10395000Y-16441143D02*
X10423572Y-16441143D01*
X10423572Y-16441143D02*
X10442619Y-16450667D01*
X10442619Y-16450667D02*
X10452143Y-16469714D01*
X10452143Y-16469714D02*
X10452143Y-16574476D01*
X10452143Y-16469714D02*
X10461667Y-16450667D01*
X10461667Y-16450667D02*
X10480714Y-16441143D01*
X10480714Y-16441143D02*
X10509286Y-16441143D01*
X10509286Y-16441143D02*
X10528333Y-16450667D01*
X10528333Y-16450667D02*
X10537857Y-16469714D01*
X10537857Y-16469714D02*
X10537857Y-16574476D01*
X10895952Y-16364952D02*
X10724524Y-16622095D01*
X11120714Y-16374476D02*
X11139762Y-16374476D01*
X11139762Y-16374476D02*
X11158810Y-16384000D01*
X11158810Y-16384000D02*
X11168333Y-16393524D01*
X11168333Y-16393524D02*
X11177857Y-16412571D01*
X11177857Y-16412571D02*
X11187381Y-16450667D01*
X11187381Y-16450667D02*
X11187381Y-16498286D01*
X11187381Y-16498286D02*
X11177857Y-16536381D01*
X11177857Y-16536381D02*
X11168333Y-16555428D01*
X11168333Y-16555428D02*
X11158810Y-16564952D01*
X11158810Y-16564952D02*
X11139762Y-16574476D01*
X11139762Y-16574476D02*
X11120714Y-16574476D01*
X11120714Y-16574476D02*
X11101667Y-16564952D01*
X11101667Y-16564952D02*
X11092143Y-16555428D01*
X11092143Y-16555428D02*
X11082619Y-16536381D01*
X11082619Y-16536381D02*
X11073095Y-16498286D01*
X11073095Y-16498286D02*
X11073095Y-16450667D01*
X11073095Y-16450667D02*
X11082619Y-16412571D01*
X11082619Y-16412571D02*
X11092143Y-16393524D01*
X11092143Y-16393524D02*
X11101667Y-16384000D01*
X11101667Y-16384000D02*
X11120714Y-16374476D01*
X11273095Y-16555428D02*
X11282619Y-16564952D01*
X11282619Y-16564952D02*
X11273095Y-16574476D01*
X11273095Y-16574476D02*
X11263571Y-16564952D01*
X11263571Y-16564952D02*
X11273095Y-16555428D01*
X11273095Y-16555428D02*
X11273095Y-16574476D01*
X11406429Y-16374476D02*
X11425476Y-16374476D01*
X11425476Y-16374476D02*
X11444524Y-16384000D01*
X11444524Y-16384000D02*
X11454048Y-16393524D01*
X11454048Y-16393524D02*
X11463571Y-16412571D01*
X11463571Y-16412571D02*
X11473095Y-16450667D01*
X11473095Y-16450667D02*
X11473095Y-16498286D01*
X11473095Y-16498286D02*
X11463571Y-16536381D01*
X11463571Y-16536381D02*
X11454048Y-16555428D01*
X11454048Y-16555428D02*
X11444524Y-16564952D01*
X11444524Y-16564952D02*
X11425476Y-16574476D01*
X11425476Y-16574476D02*
X11406429Y-16574476D01*
X11406429Y-16574476D02*
X11387381Y-16564952D01*
X11387381Y-16564952D02*
X11377857Y-16555428D01*
X11377857Y-16555428D02*
X11368333Y-16536381D01*
X11368333Y-16536381D02*
X11358810Y-16498286D01*
X11358810Y-16498286D02*
X11358810Y-16450667D01*
X11358810Y-16450667D02*
X11368333Y-16412571D01*
X11368333Y-16412571D02*
X11377857Y-16393524D01*
X11377857Y-16393524D02*
X11387381Y-16384000D01*
X11387381Y-16384000D02*
X11406429Y-16374476D01*
X11568333Y-16574476D02*
X11606429Y-16574476D01*
X11606429Y-16574476D02*
X11625476Y-16564952D01*
X11625476Y-16564952D02*
X11635000Y-16555428D01*
X11635000Y-16555428D02*
X11654048Y-16526857D01*
X11654048Y-16526857D02*
X11663571Y-16488762D01*
X11663571Y-16488762D02*
X11663571Y-16412571D01*
X11663571Y-16412571D02*
X11654048Y-16393524D01*
X11654048Y-16393524D02*
X11644524Y-16384000D01*
X11644524Y-16384000D02*
X11625476Y-16374476D01*
X11625476Y-16374476D02*
X11587381Y-16374476D01*
X11587381Y-16374476D02*
X11568333Y-16384000D01*
X11568333Y-16384000D02*
X11558810Y-16393524D01*
X11558810Y-16393524D02*
X11549286Y-16412571D01*
X11549286Y-16412571D02*
X11549286Y-16460190D01*
X11549286Y-16460190D02*
X11558810Y-16479238D01*
X11558810Y-16479238D02*
X11568333Y-16488762D01*
X11568333Y-16488762D02*
X11587381Y-16498286D01*
X11587381Y-16498286D02*
X11625476Y-16498286D01*
X11625476Y-16498286D02*
X11644524Y-16488762D01*
X11644524Y-16488762D02*
X11654048Y-16479238D01*
X11654048Y-16479238D02*
X11663571Y-16460190D01*
X11835000Y-16441143D02*
X11835000Y-16574476D01*
X11787381Y-16364952D02*
X11739762Y-16507809D01*
X11739762Y-16507809D02*
X11863571Y-16507809D01*
X12035000Y-16374476D02*
X11939762Y-16374476D01*
X11939762Y-16374476D02*
X11930238Y-16469714D01*
X11930238Y-16469714D02*
X11939762Y-16460190D01*
X11939762Y-16460190D02*
X11958810Y-16450667D01*
X11958810Y-16450667D02*
X12006429Y-16450667D01*
X12006429Y-16450667D02*
X12025476Y-16460190D01*
X12025476Y-16460190D02*
X12035000Y-16469714D01*
X12035000Y-16469714D02*
X12044524Y-16488762D01*
X12044524Y-16488762D02*
X12044524Y-16536381D01*
X12044524Y-16536381D02*
X12035000Y-16555428D01*
X12035000Y-16555428D02*
X12025476Y-16564952D01*
X12025476Y-16564952D02*
X12006429Y-16574476D01*
X12006429Y-16574476D02*
X11958810Y-16574476D01*
X11958810Y-16574476D02*
X11939762Y-16564952D01*
X11939762Y-16564952D02*
X11930238Y-16555428D01*
X12120714Y-16374476D02*
X12120714Y-16412571D01*
X12196905Y-16374476D02*
X12196905Y-16412571D01*
X12459762Y-16650667D02*
X12450238Y-16641143D01*
X12450238Y-16641143D02*
X12431191Y-16612571D01*
X12431191Y-16612571D02*
X12421667Y-16593524D01*
X12421667Y-16593524D02*
X12412143Y-16564952D01*
X12412143Y-16564952D02*
X12402619Y-16517333D01*
X12402619Y-16517333D02*
X12402619Y-16479238D01*
X12402619Y-16479238D02*
X12412143Y-16431619D01*
X12412143Y-16431619D02*
X12421667Y-16403048D01*
X12421667Y-16403048D02*
X12431191Y-16384000D01*
X12431191Y-16384000D02*
X12450238Y-16355428D01*
X12450238Y-16355428D02*
X12459762Y-16345905D01*
X12640714Y-16574476D02*
X12526429Y-16574476D01*
X12583571Y-16574476D02*
X12583571Y-16374476D01*
X12583571Y-16374476D02*
X12564524Y-16403048D01*
X12564524Y-16403048D02*
X12545476Y-16422095D01*
X12545476Y-16422095D02*
X12526429Y-16431619D01*
X12846429Y-16574476D02*
X12846429Y-16374476D01*
X12932143Y-16574476D02*
X12932143Y-16469714D01*
X12932143Y-16469714D02*
X12922619Y-16450667D01*
X12922619Y-16450667D02*
X12903572Y-16441143D01*
X12903572Y-16441143D02*
X12875000Y-16441143D01*
X12875000Y-16441143D02*
X12855952Y-16450667D01*
X12855952Y-16450667D02*
X12846429Y-16460190D01*
X13055952Y-16574476D02*
X13036905Y-16564952D01*
X13036905Y-16564952D02*
X13027381Y-16555428D01*
X13027381Y-16555428D02*
X13017857Y-16536381D01*
X13017857Y-16536381D02*
X13017857Y-16479238D01*
X13017857Y-16479238D02*
X13027381Y-16460190D01*
X13027381Y-16460190D02*
X13036905Y-16450667D01*
X13036905Y-16450667D02*
X13055952Y-16441143D01*
X13055952Y-16441143D02*
X13084524Y-16441143D01*
X13084524Y-16441143D02*
X13103572Y-16450667D01*
X13103572Y-16450667D02*
X13113095Y-16460190D01*
X13113095Y-16460190D02*
X13122619Y-16479238D01*
X13122619Y-16479238D02*
X13122619Y-16536381D01*
X13122619Y-16536381D02*
X13113095Y-16555428D01*
X13113095Y-16555428D02*
X13103572Y-16564952D01*
X13103572Y-16564952D02*
X13084524Y-16574476D01*
X13084524Y-16574476D02*
X13055952Y-16574476D01*
X13236905Y-16574476D02*
X13217857Y-16564952D01*
X13217857Y-16564952D02*
X13208333Y-16545905D01*
X13208333Y-16545905D02*
X13208333Y-16374476D01*
X13389286Y-16564952D02*
X13370238Y-16574476D01*
X13370238Y-16574476D02*
X13332143Y-16574476D01*
X13332143Y-16574476D02*
X13313095Y-16564952D01*
X13313095Y-16564952D02*
X13303572Y-16545905D01*
X13303572Y-16545905D02*
X13303572Y-16469714D01*
X13303572Y-16469714D02*
X13313095Y-16450667D01*
X13313095Y-16450667D02*
X13332143Y-16441143D01*
X13332143Y-16441143D02*
X13370238Y-16441143D01*
X13370238Y-16441143D02*
X13389286Y-16450667D01*
X13389286Y-16450667D02*
X13398810Y-16469714D01*
X13398810Y-16469714D02*
X13398810Y-16488762D01*
X13398810Y-16488762D02*
X13303572Y-16507809D01*
X13465476Y-16650667D02*
X13475000Y-16641143D01*
X13475000Y-16641143D02*
X13494048Y-16612571D01*
X13494048Y-16612571D02*
X13503572Y-16593524D01*
X13503572Y-16593524D02*
X13513095Y-16564952D01*
X13513095Y-16564952D02*
X13522619Y-16517333D01*
X13522619Y-16517333D02*
X13522619Y-16479238D01*
X13522619Y-16479238D02*
X13513095Y-16431619D01*
X13513095Y-16431619D02*
X13503572Y-16403048D01*
X13503572Y-16403048D02*
X13494048Y-16384000D01*
X13494048Y-16384000D02*
X13475000Y-16355428D01*
X13475000Y-16355428D02*
X13465476Y-16345905D01*
X8795000Y-16721000D02*
X8995000Y-16921000D01*
X8995000Y-16721000D02*
X8795000Y-16921000D01*
X8995000Y-16821000D02*
G75*
G03*
X8995000Y-16821000I-100000J0D01*
G01*
X9223571Y-16694476D02*
X9347381Y-16694476D01*
X9347381Y-16694476D02*
X9280714Y-16770667D01*
X9280714Y-16770667D02*
X9309286Y-16770667D01*
X9309286Y-16770667D02*
X9328333Y-16780190D01*
X9328333Y-16780190D02*
X9337857Y-16789714D01*
X9337857Y-16789714D02*
X9347381Y-16808762D01*
X9347381Y-16808762D02*
X9347381Y-16856381D01*
X9347381Y-16856381D02*
X9337857Y-16875429D01*
X9337857Y-16875429D02*
X9328333Y-16884952D01*
X9328333Y-16884952D02*
X9309286Y-16894476D01*
X9309286Y-16894476D02*
X9252143Y-16894476D01*
X9252143Y-16894476D02*
X9233095Y-16884952D01*
X9233095Y-16884952D02*
X9223571Y-16875429D01*
X9433095Y-16875429D02*
X9442619Y-16884952D01*
X9442619Y-16884952D02*
X9433095Y-16894476D01*
X9433095Y-16894476D02*
X9423571Y-16884952D01*
X9423571Y-16884952D02*
X9433095Y-16875429D01*
X9433095Y-16875429D02*
X9433095Y-16894476D01*
X9509286Y-16694476D02*
X9642619Y-16694476D01*
X9642619Y-16694476D02*
X9556905Y-16894476D01*
X9756905Y-16694476D02*
X9775952Y-16694476D01*
X9775952Y-16694476D02*
X9795000Y-16704000D01*
X9795000Y-16704000D02*
X9804524Y-16713524D01*
X9804524Y-16713524D02*
X9814048Y-16732571D01*
X9814048Y-16732571D02*
X9823571Y-16770667D01*
X9823571Y-16770667D02*
X9823571Y-16818286D01*
X9823571Y-16818286D02*
X9814048Y-16856381D01*
X9814048Y-16856381D02*
X9804524Y-16875429D01*
X9804524Y-16875429D02*
X9795000Y-16884952D01*
X9795000Y-16884952D02*
X9775952Y-16894476D01*
X9775952Y-16894476D02*
X9756905Y-16894476D01*
X9756905Y-16894476D02*
X9737857Y-16884952D01*
X9737857Y-16884952D02*
X9728333Y-16875429D01*
X9728333Y-16875429D02*
X9718810Y-16856381D01*
X9718810Y-16856381D02*
X9709286Y-16818286D01*
X9709286Y-16818286D02*
X9709286Y-16770667D01*
X9709286Y-16770667D02*
X9718810Y-16732571D01*
X9718810Y-16732571D02*
X9728333Y-16713524D01*
X9728333Y-16713524D02*
X9737857Y-16704000D01*
X9737857Y-16704000D02*
X9756905Y-16694476D01*
X9947381Y-16694476D02*
X9966429Y-16694476D01*
X9966429Y-16694476D02*
X9985476Y-16704000D01*
X9985476Y-16704000D02*
X9995000Y-16713524D01*
X9995000Y-16713524D02*
X10004524Y-16732571D01*
X10004524Y-16732571D02*
X10014048Y-16770667D01*
X10014048Y-16770667D02*
X10014048Y-16818286D01*
X10014048Y-16818286D02*
X10004524Y-16856381D01*
X10004524Y-16856381D02*
X9995000Y-16875429D01*
X9995000Y-16875429D02*
X9985476Y-16884952D01*
X9985476Y-16884952D02*
X9966429Y-16894476D01*
X9966429Y-16894476D02*
X9947381Y-16894476D01*
X9947381Y-16894476D02*
X9928333Y-16884952D01*
X9928333Y-16884952D02*
X9918810Y-16875429D01*
X9918810Y-16875429D02*
X9909286Y-16856381D01*
X9909286Y-16856381D02*
X9899762Y-16818286D01*
X9899762Y-16818286D02*
X9899762Y-16770667D01*
X9899762Y-16770667D02*
X9909286Y-16732571D01*
X9909286Y-16732571D02*
X9918810Y-16713524D01*
X9918810Y-16713524D02*
X9928333Y-16704000D01*
X9928333Y-16704000D02*
X9947381Y-16694476D01*
X10099762Y-16894476D02*
X10099762Y-16761143D01*
X10099762Y-16780190D02*
X10109286Y-16770667D01*
X10109286Y-16770667D02*
X10128333Y-16761143D01*
X10128333Y-16761143D02*
X10156905Y-16761143D01*
X10156905Y-16761143D02*
X10175952Y-16770667D01*
X10175952Y-16770667D02*
X10185476Y-16789714D01*
X10185476Y-16789714D02*
X10185476Y-16894476D01*
X10185476Y-16789714D02*
X10195000Y-16770667D01*
X10195000Y-16770667D02*
X10214048Y-16761143D01*
X10214048Y-16761143D02*
X10242619Y-16761143D01*
X10242619Y-16761143D02*
X10261667Y-16770667D01*
X10261667Y-16770667D02*
X10271191Y-16789714D01*
X10271191Y-16789714D02*
X10271191Y-16894476D01*
X10366429Y-16894476D02*
X10366429Y-16761143D01*
X10366429Y-16780190D02*
X10375952Y-16770667D01*
X10375952Y-16770667D02*
X10395000Y-16761143D01*
X10395000Y-16761143D02*
X10423572Y-16761143D01*
X10423572Y-16761143D02*
X10442619Y-16770667D01*
X10442619Y-16770667D02*
X10452143Y-16789714D01*
X10452143Y-16789714D02*
X10452143Y-16894476D01*
X10452143Y-16789714D02*
X10461667Y-16770667D01*
X10461667Y-16770667D02*
X10480714Y-16761143D01*
X10480714Y-16761143D02*
X10509286Y-16761143D01*
X10509286Y-16761143D02*
X10528333Y-16770667D01*
X10528333Y-16770667D02*
X10537857Y-16789714D01*
X10537857Y-16789714D02*
X10537857Y-16894476D01*
X10895952Y-16684952D02*
X10724524Y-16942095D01*
X11120714Y-16694476D02*
X11139762Y-16694476D01*
X11139762Y-16694476D02*
X11158810Y-16704000D01*
X11158810Y-16704000D02*
X11168333Y-16713524D01*
X11168333Y-16713524D02*
X11177857Y-16732571D01*
X11177857Y-16732571D02*
X11187381Y-16770667D01*
X11187381Y-16770667D02*
X11187381Y-16818286D01*
X11187381Y-16818286D02*
X11177857Y-16856381D01*
X11177857Y-16856381D02*
X11168333Y-16875429D01*
X11168333Y-16875429D02*
X11158810Y-16884952D01*
X11158810Y-16884952D02*
X11139762Y-16894476D01*
X11139762Y-16894476D02*
X11120714Y-16894476D01*
X11120714Y-16894476D02*
X11101667Y-16884952D01*
X11101667Y-16884952D02*
X11092143Y-16875429D01*
X11092143Y-16875429D02*
X11082619Y-16856381D01*
X11082619Y-16856381D02*
X11073095Y-16818286D01*
X11073095Y-16818286D02*
X11073095Y-16770667D01*
X11073095Y-16770667D02*
X11082619Y-16732571D01*
X11082619Y-16732571D02*
X11092143Y-16713524D01*
X11092143Y-16713524D02*
X11101667Y-16704000D01*
X11101667Y-16704000D02*
X11120714Y-16694476D01*
X11273095Y-16875429D02*
X11282619Y-16884952D01*
X11282619Y-16884952D02*
X11273095Y-16894476D01*
X11273095Y-16894476D02*
X11263571Y-16884952D01*
X11263571Y-16884952D02*
X11273095Y-16875429D01*
X11273095Y-16875429D02*
X11273095Y-16894476D01*
X11473095Y-16894476D02*
X11358810Y-16894476D01*
X11415952Y-16894476D02*
X11415952Y-16694476D01*
X11415952Y-16694476D02*
X11396905Y-16723048D01*
X11396905Y-16723048D02*
X11377857Y-16742095D01*
X11377857Y-16742095D02*
X11358810Y-16751619D01*
X11644524Y-16761143D02*
X11644524Y-16894476D01*
X11596905Y-16684952D02*
X11549286Y-16827810D01*
X11549286Y-16827810D02*
X11673095Y-16827810D01*
X11844524Y-16694476D02*
X11749286Y-16694476D01*
X11749286Y-16694476D02*
X11739762Y-16789714D01*
X11739762Y-16789714D02*
X11749286Y-16780190D01*
X11749286Y-16780190D02*
X11768333Y-16770667D01*
X11768333Y-16770667D02*
X11815952Y-16770667D01*
X11815952Y-16770667D02*
X11835000Y-16780190D01*
X11835000Y-16780190D02*
X11844524Y-16789714D01*
X11844524Y-16789714D02*
X11854048Y-16808762D01*
X11854048Y-16808762D02*
X11854048Y-16856381D01*
X11854048Y-16856381D02*
X11844524Y-16875429D01*
X11844524Y-16875429D02*
X11835000Y-16884952D01*
X11835000Y-16884952D02*
X11815952Y-16894476D01*
X11815952Y-16894476D02*
X11768333Y-16894476D01*
X11768333Y-16894476D02*
X11749286Y-16884952D01*
X11749286Y-16884952D02*
X11739762Y-16875429D01*
X11920714Y-16694476D02*
X12054048Y-16694476D01*
X12054048Y-16694476D02*
X11968333Y-16894476D01*
X12120714Y-16694476D02*
X12120714Y-16732571D01*
X12196905Y-16694476D02*
X12196905Y-16732571D01*
X12459762Y-16970667D02*
X12450238Y-16961143D01*
X12450238Y-16961143D02*
X12431191Y-16932571D01*
X12431191Y-16932571D02*
X12421667Y-16913524D01*
X12421667Y-16913524D02*
X12412143Y-16884952D01*
X12412143Y-16884952D02*
X12402619Y-16837333D01*
X12402619Y-16837333D02*
X12402619Y-16799238D01*
X12402619Y-16799238D02*
X12412143Y-16751619D01*
X12412143Y-16751619D02*
X12421667Y-16723048D01*
X12421667Y-16723048D02*
X12431191Y-16704000D01*
X12431191Y-16704000D02*
X12450238Y-16675428D01*
X12450238Y-16675428D02*
X12459762Y-16665905D01*
X12526429Y-16713524D02*
X12535952Y-16704000D01*
X12535952Y-16704000D02*
X12555000Y-16694476D01*
X12555000Y-16694476D02*
X12602619Y-16694476D01*
X12602619Y-16694476D02*
X12621667Y-16704000D01*
X12621667Y-16704000D02*
X12631191Y-16713524D01*
X12631191Y-16713524D02*
X12640714Y-16732571D01*
X12640714Y-16732571D02*
X12640714Y-16751619D01*
X12640714Y-16751619D02*
X12631191Y-16780190D01*
X12631191Y-16780190D02*
X12516905Y-16894476D01*
X12516905Y-16894476D02*
X12640714Y-16894476D01*
X12846429Y-16894476D02*
X12846429Y-16694476D01*
X12932143Y-16894476D02*
X12932143Y-16789714D01*
X12932143Y-16789714D02*
X12922619Y-16770667D01*
X12922619Y-16770667D02*
X12903572Y-16761143D01*
X12903572Y-16761143D02*
X12875000Y-16761143D01*
X12875000Y-16761143D02*
X12855952Y-16770667D01*
X12855952Y-16770667D02*
X12846429Y-16780190D01*
X13055952Y-16894476D02*
X13036905Y-16884952D01*
X13036905Y-16884952D02*
X13027381Y-16875429D01*
X13027381Y-16875429D02*
X13017857Y-16856381D01*
X13017857Y-16856381D02*
X13017857Y-16799238D01*
X13017857Y-16799238D02*
X13027381Y-16780190D01*
X13027381Y-16780190D02*
X13036905Y-16770667D01*
X13036905Y-16770667D02*
X13055952Y-16761143D01*
X13055952Y-16761143D02*
X13084524Y-16761143D01*
X13084524Y-16761143D02*
X13103572Y-16770667D01*
X13103572Y-16770667D02*
X13113095Y-16780190D01*
X13113095Y-16780190D02*
X13122619Y-16799238D01*
X13122619Y-16799238D02*
X13122619Y-16856381D01*
X13122619Y-16856381D02*
X13113095Y-16875429D01*
X13113095Y-16875429D02*
X13103572Y-16884952D01*
X13103572Y-16884952D02*
X13084524Y-16894476D01*
X13084524Y-16894476D02*
X13055952Y-16894476D01*
X13236905Y-16894476D02*
X13217857Y-16884952D01*
X13217857Y-16884952D02*
X13208333Y-16865905D01*
X13208333Y-16865905D02*
X13208333Y-16694476D01*
X13389286Y-16884952D02*
X13370238Y-16894476D01*
X13370238Y-16894476D02*
X13332143Y-16894476D01*
X13332143Y-16894476D02*
X13313095Y-16884952D01*
X13313095Y-16884952D02*
X13303572Y-16865905D01*
X13303572Y-16865905D02*
X13303572Y-16789714D01*
X13303572Y-16789714D02*
X13313095Y-16770667D01*
X13313095Y-16770667D02*
X13332143Y-16761143D01*
X13332143Y-16761143D02*
X13370238Y-16761143D01*
X13370238Y-16761143D02*
X13389286Y-16770667D01*
X13389286Y-16770667D02*
X13398810Y-16789714D01*
X13398810Y-16789714D02*
X13398810Y-16808762D01*
X13398810Y-16808762D02*
X13303572Y-16827810D01*
X13475000Y-16884952D02*
X13494048Y-16894476D01*
X13494048Y-16894476D02*
X13532143Y-16894476D01*
X13532143Y-16894476D02*
X13551191Y-16884952D01*
X13551191Y-16884952D02*
X13560714Y-16865905D01*
X13560714Y-16865905D02*
X13560714Y-16856381D01*
X13560714Y-16856381D02*
X13551191Y-16837333D01*
X13551191Y-16837333D02*
X13532143Y-16827810D01*
X13532143Y-16827810D02*
X13503572Y-16827810D01*
X13503572Y-16827810D02*
X13484524Y-16818286D01*
X13484524Y-16818286D02*
X13475000Y-16799238D01*
X13475000Y-16799238D02*
X13475000Y-16789714D01*
X13475000Y-16789714D02*
X13484524Y-16770667D01*
X13484524Y-16770667D02*
X13503572Y-16761143D01*
X13503572Y-16761143D02*
X13532143Y-16761143D01*
X13532143Y-16761143D02*
X13551191Y-16770667D01*
X13627381Y-16970667D02*
X13636905Y-16961143D01*
X13636905Y-16961143D02*
X13655953Y-16932571D01*
X13655953Y-16932571D02*
X13665476Y-16913524D01*
X13665476Y-16913524D02*
X13675000Y-16884952D01*
X13675000Y-16884952D02*
X13684524Y-16837333D01*
X13684524Y-16837333D02*
X13684524Y-16799238D01*
X13684524Y-16799238D02*
X13675000Y-16751619D01*
X13675000Y-16751619D02*
X13665476Y-16723048D01*
X13665476Y-16723048D02*
X13655953Y-16704000D01*
X13655953Y-16704000D02*
X13636905Y-16675428D01*
X13636905Y-16675428D02*
X13627381Y-16665905D01*
M02*
