%TF.GenerationSoftware,KiCad,Pcbnew,(7.0.0)*%
%TF.CreationDate,2023-03-21T11:07:30+02:00*%
%TF.ProjectId,SCHEMATICS,53434845-4d41-4544-9943-532e6b696361,rev?*%
%TF.SameCoordinates,Original*%
%TF.FileFunction,Soldermask,Bot*%
%TF.FilePolarity,Negative*%
%FSLAX46Y46*%
G04 Gerber Fmt 4.6, Leading zero omitted, Abs format (unit mm)*
G04 Created by KiCad (PCBNEW (7.0.0)) date 2023-03-21 11:07:30*
%MOMM*%
%LPD*%
G01*
G04 APERTURE LIST*
%ADD10C,1.524000*%
%ADD11C,1.300000*%
%ADD12O,2.200000X1.300000*%
%ADD13R,1.700000X1.700000*%
%ADD14O,1.700000X1.700000*%
%ADD15C,4.000000*%
%ADD16C,2.700000*%
G04 APERTURE END LIST*
D10*
%TO.C,U8*%
X184126500Y-106193500D03*
X181586500Y-106193500D03*
X179046500Y-106193500D03*
X176506500Y-106193500D03*
X173966500Y-106193500D03*
X171426500Y-106193500D03*
X168886500Y-106193500D03*
X166346500Y-106193500D03*
X163806500Y-106193500D03*
X161266500Y-106193500D03*
X158726500Y-106193500D03*
X156186500Y-106193500D03*
X153646500Y-106193500D03*
X151106500Y-106193500D03*
X148566500Y-106193500D03*
X146026500Y-106193500D03*
X143486500Y-106193500D03*
X140946500Y-106193500D03*
X138406500Y-106193500D03*
X135866500Y-106193500D03*
X133326500Y-106193500D03*
X130786500Y-106193500D03*
X128246500Y-106193500D03*
X125706500Y-106193500D03*
X125706500Y-122703500D03*
X128246500Y-122703500D03*
X130786500Y-122703500D03*
X133326500Y-122703500D03*
X135866500Y-122703500D03*
X138406500Y-122703500D03*
X140946500Y-122703500D03*
X143486500Y-122703500D03*
X146026500Y-122703500D03*
X148566500Y-122703500D03*
X151106500Y-122703500D03*
X153646500Y-122703500D03*
X156186500Y-122703500D03*
X158726500Y-122703500D03*
X161266500Y-122703500D03*
X163806500Y-122703500D03*
X166346500Y-122703500D03*
X168886500Y-122703500D03*
X171426500Y-122703500D03*
X173966500Y-122703500D03*
X176506500Y-122703500D03*
X179046500Y-122703500D03*
X181586500Y-122703500D03*
X184126500Y-122703500D03*
%TD*%
D11*
%TO.C,MicroXNJ1*%
X97499111Y-83599886D03*
D12*
X94829057Y-84774891D03*
X94829057Y-77574993D03*
D11*
X97499111Y-78750000D03*
%TD*%
D13*
%TO.C,J2*%
X125306499Y-126703499D03*
D14*
X127846499Y-126703499D03*
X130386499Y-126703499D03*
X132926499Y-126703499D03*
X135466499Y-126703499D03*
X138006499Y-126703499D03*
X140546499Y-126703499D03*
X143086499Y-126703499D03*
X145626499Y-126703499D03*
X148166499Y-126703499D03*
X150706499Y-126703499D03*
X153246499Y-126703499D03*
X155786499Y-126703499D03*
X158326499Y-126703499D03*
X160866499Y-126703499D03*
X163406499Y-126703499D03*
X165946499Y-126703499D03*
X168486499Y-126703499D03*
X171026499Y-126703499D03*
X173566499Y-126703499D03*
X176106499Y-126703499D03*
X178646499Y-126703499D03*
X181186499Y-126703499D03*
X183726499Y-126703499D03*
%TD*%
D15*
%TO.C,U9*%
X108544000Y-67419000D03*
X163744000Y-51419000D03*
D16*
X171964000Y-67419000D03*
%TD*%
D13*
%TO.C,J1*%
X184586499Y-102703499D03*
D14*
X182046499Y-102703499D03*
X179506499Y-102703499D03*
X176966499Y-102703499D03*
X174426499Y-102703499D03*
X171886499Y-102703499D03*
X169346499Y-102703499D03*
X166806499Y-102703499D03*
X164266499Y-102703499D03*
X161726499Y-102703499D03*
X159186499Y-102703499D03*
X156646499Y-102703499D03*
X154106499Y-102703499D03*
X151566499Y-102703499D03*
X149026499Y-102703499D03*
X146486499Y-102703499D03*
X143946499Y-102703499D03*
X141406499Y-102703499D03*
X138866499Y-102703499D03*
X136326499Y-102703499D03*
X133786499Y-102703499D03*
X131246499Y-102703499D03*
X128706499Y-102703499D03*
X126166499Y-102703499D03*
%TD*%
M02*
