M48
; DRILL file {KiCad (7.0.0)} date Tue Mar 21 11:08:08 2023
; FORMAT={-:-/ absolute / inch / decimal}
; #@! TF.CreationDate,2023-03-21T11:08:08+02:00
; #@! TF.GenerationSoftware,Kicad,Pcbnew,(7.0.0)
; #@! TF.FileFunction,Plated,1,2,PTH
FMAT,2
INCH
; #@! TA.AperFunction,Plated,PTH,ViaDrill
T1C0.0157
; #@! TA.AperFunction,Plated,PTH,ComponentDrill
T2C0.0276
; #@! TA.AperFunction,Plated,PTH,ComponentDrill
T3C0.0300
; #@! TA.AperFunction,Plated,PTH,ComponentDrill
T4C0.0394
; #@! TA.AperFunction,Plated,PTH,ComponentDrill
T5C0.0945
; #@! TA.AperFunction,Plated,PTH,ComponentDrill
T6C0.1457
%
G90
G05
T1
X3.5827Y-5.0
X3.6614Y-4.0157
X3.6811Y-4.6358
X3.7011Y-5.1651
X3.7106Y-4.5276
X3.7402Y-2.5197
X3.7795Y-4.8425
X3.8878Y-5.1772
X3.8976Y-3.1102
X3.9665Y-4.2815
X4.1437Y-4.0846
X4.2126Y-3.5433
X4.2126Y-5.0394
X4.5276Y-3.3071
X4.5472Y-3.0906
X4.6063Y-3.937
X4.685Y-3.3071
X4.7638Y-4.3307
X5.1575Y-5.1969
X5.6299Y-5.4724
X5.6683Y-3.4242
X5.9055Y-2.874
X6.0854Y-5.2898
X6.1811Y-3.5827
X6.1811Y-5.3937
X6.2402Y-2.874
X6.4961Y-3.0709
X6.5748Y-2.8346
X6.7717Y-5.2362
X7.1654Y-2.5984
X7.2047Y-2.874
X7.2137Y-2.3066
T2
X3.8385Y-3.1004
X3.8385Y-3.2913
T3
X4.9491Y-4.1808
X4.9491Y-4.8308
X5.0491Y-4.1808
X5.0491Y-4.8308
X5.1491Y-4.1808
X5.1491Y-4.8308
X5.2491Y-4.1808
X5.2491Y-4.8308
X5.3491Y-4.1808
X5.3491Y-4.8308
X5.4491Y-4.1808
X5.4491Y-4.8308
X5.5491Y-4.1808
X5.5491Y-4.8308
X5.6491Y-4.1808
X5.6491Y-4.8308
X5.7491Y-4.1808
X5.7491Y-4.8308
X5.8491Y-4.1808
X5.8491Y-4.8308
X5.9491Y-4.1808
X5.9491Y-4.8308
X6.0491Y-4.1808
X6.0491Y-4.8308
X6.1491Y-4.1808
X6.1491Y-4.8308
X6.2491Y-4.1808
X6.2491Y-4.8308
X6.3491Y-4.1808
X6.3491Y-4.8308
X6.4491Y-4.1808
X6.4491Y-4.8308
X6.5491Y-4.1808
X6.5491Y-4.8308
X6.6491Y-4.1808
X6.6491Y-4.8308
X6.7491Y-4.1808
X6.7491Y-4.8308
X6.8491Y-4.1808
X6.8491Y-4.8308
X6.9491Y-4.1808
X6.9491Y-4.8308
X7.0491Y-4.1808
X7.0491Y-4.8308
X7.1491Y-4.1808
X7.1491Y-4.8308
X7.2491Y-4.1808
X7.2491Y-4.8308
T4
X4.9333Y-4.9883
X4.9672Y-4.0434
X5.0333Y-4.9883
X5.0672Y-4.0434
X5.1333Y-4.9883
X5.1672Y-4.0434
X5.2333Y-4.9883
X5.2672Y-4.0434
X5.3333Y-4.9883
X5.3672Y-4.0434
X5.4333Y-4.9883
X5.4672Y-4.0434
X5.5333Y-4.9883
X5.5672Y-4.0434
X5.6333Y-4.9883
X5.6672Y-4.0434
X5.7333Y-4.9883
X5.7672Y-4.0434
X5.8333Y-4.9883
X5.8672Y-4.0434
X5.9333Y-4.9883
X5.9672Y-4.0434
X6.0333Y-4.9883
X6.0672Y-4.0434
X6.1333Y-4.9883
X6.1672Y-4.0434
X6.2333Y-4.9883
X6.2672Y-4.0434
X6.3333Y-4.9883
X6.3672Y-4.0434
X6.4333Y-4.9883
X6.4672Y-4.0434
X6.5333Y-4.9883
X6.5672Y-4.0434
X6.6333Y-4.9883
X6.6672Y-4.0434
X6.7333Y-4.9883
X6.7672Y-4.0434
X6.8333Y-4.9883
X6.8672Y-4.0434
X6.9333Y-4.9883
X6.9672Y-4.0434
X7.0333Y-4.9883
X7.0672Y-4.0434
X7.1333Y-4.9883
X7.1672Y-4.0434
X7.2333Y-4.9883
X7.2672Y-4.0434
T5
X6.7702Y-2.6543
T6
X4.2734Y-2.6543
X6.4466Y-2.0244
T2
G00X3.7492Y-3.0541
M15
G01X3.7177Y-3.0541
M16
G05
G00X3.7492Y-3.3376
M15
G01X3.7177Y-3.3376
M16
G05
T0
M30
